<svg id="Line" xmlns="http://www.w3.org/2000/svg" viewBox="0 0 64 64"><defs><style>.cls-1{fill:#231f20;}</style></defs><title>1</title><path class="cls-1" d="M32,4A28,28,0,1,0,60,32,28.03146,28.03146,0,0,0,32,4Zm0,54A26,26,0,1,1,58,32,26.02947,26.02947,0,0,1,32,58Z"/><path class="cls-1" d="M18.49658,27.022A4.978,4.978,0,1,0,23.4751,32,4.98338,4.98338,0,0,0,18.49658,27.022Zm0,7.95606A2.978,2.978,0,1,1,21.4751,32,2.9814,2.9814,0,0,1,18.49658,34.978Z"/><path class="cls-1" d="M32,27.022A4.978,4.978,0,1,0,36.97852,32,4.98338,4.98338,0,0,0,32,27.022ZM32,34.978A2.978,2.978,0,1,1,34.97852,32,2.9814,2.9814,0,0,1,32,34.978Z"/><path class="cls-1" d="M45.50293,27.022A4.978,4.978,0,1,0,50.48145,32,4.98359,4.98359,0,0,0,45.50293,27.022Zm0,7.95606A2.978,2.978,0,1,1,48.48145,32,2.9813,2.9813,0,0,1,45.50293,34.978Z"/></svg>