<svg id="Layer_1" data-name="Layer 1" xmlns="http://www.w3.org/2000/svg" viewBox="0 0 512 512"><path d="M418.985,195.17c-19.359-6.388-45.969-11.733-75.49-15.2,7.728-36.614,9.965-69.465,6.642-98.121-4.323-37.28-17.02-57.617-24.2-66.421a14.761,14.761,0,0,0-20.718-2.13c-17.607,14.318-30.4,35.42-38.027,62.719-5.983,21.416-8.82,46.715-8.434,75.2.113,8.34.5,16.431,1.048,24.134a180.072,180.072,0,0,0-19.97.216c3.157-30.079,1.61-64-14.815-86.91-13.057-18.211-33.5-25.7-56.093-20.541C131.4,76.68,99.328,116.137,90.938,164.067a12.247,12.247,0,0,0,11.62,14.346c10.89.394,32.4.222,54.115-5.292,2.471-.627,4.851-1.323,7.188-2.05-.039,3.013.063,6.048.279,9.076-27.869,3.621-53.289,9.082-72.087,15.517C67.847,203.951,56.08,213.14,56.08,223.757c0,14.685,20.7,26.588,61.535,35.375,1.018.219,2.048.434,3.083.647-1.212,30.8-2.727,63.278-4.2,94.757-1.554,33.245-3.161,67.621-4.405,99.972a24.294,24.294,0,0,0,15.439,23.556A348.331,348.331,0,0,0,254.592,502c1.006,0,2.017,0,3.025-.013a348.616,348.616,0,0,0,124.137-23.933,24.293,24.293,0,0,0,15.423-23.527L389.9,260.065c1.512-.307,3.012-.616,4.487-.933,40.831-8.787,61.535-20.69,61.535-35.375C455.92,212.723,443.838,203.371,418.985,195.17ZM312.785,22.609a2.744,2.744,0,0,1,3.85.407c11.5,14.1,45.23,70.592.429,208.818-11.568.889-24.074,1.528-37.094,1.9C274.393,206.892,250.405,73.34,312.785,22.609ZM238.294,187.693a166.514,166.514,0,0,1,22.533-.256q.356,3.608.745,7.048a203.115,203.115,0,0,0-24.39.155Q237.766,191.232,238.294,187.693Zm24.812,18.943c1.647,11.832,3.413,21.315,4.646,27.357q-6.975.1-14.062.109c-8.65,0-17.2-.122-25.553-.351,1.809-6.159,4.362-15.58,6.731-26.924C241.192,206.367,253.12,205.746,263.106,206.636ZM102.988,166.421a.214.214,0,0,1-.177-.092.218.218,0,0,1-.053-.193c8.846-50.533,41.883-80.171,68.835-86.322,17.908-4.087,33.419,1.536,43.671,15.834,16.265,22.684,15.277,59.741,11.585,86.834a343.946,343.946,0,0,1-11.128,50.839c-9.148-.383-17.956-.905-26.273-1.556-3.98-9.712-15.23-39.776-13.4-65.184,17.33-7.549,29.942-18.488,37.6-32.675a6,6,0,1,0-10.56-5.7C182.552,166.258,121.279,167.071,102.988,166.421Zm274.4,300.453a337.408,337.408,0,0,1-245.5.01,12.29,12.29,0,0,1-7.807-11.915c1.242-32.3,2.848-66.653,4.4-99.872,1.444-30.891,2.929-62.737,4.131-93.049,34.83,6.116,77.943,9.441,123.382,9.441,44.829,0,87.392-3.238,121.973-9.2l7.212,192.686A12.28,12.28,0,0,1,377.392,466.874ZM391.86,247.4c-36.225,7.8-84.474,12.089-135.86,12.089S156.365,255.2,120.14,247.4c-51.468-11.076-52.06-23.135-52.06-23.643,0-2.491,5.823-9.2,27.859-16.739,18.034-6.174,42.574-11.434,69.605-14.951a204.75,204.75,0,0,0,10.517,38.5c-2.808-.289-5.55-.591-8.194-.913-19.892-2.417-29.822-5.073-34.681-6.907,5.248-1.648,16-4.086,37.867-6.852-1.09-3.638-2.154-7.572-3.121-11.7-12.667,1.627-22.576,3.256-30.133,4.955-12.3,2.765-20.49,6.055-20.49,13.123,0,6.555,5.255,13.34,43.375,18.555,24.887,3.405,57.917,5.28,93.006,5.28s68.12-1.875,93.007-5.28c38.12-5.215,43.375-12,43.375-18.555,0-7.614-9.755-11.189-20.3-13.919a269.479,269.479,0,0,0-31.6-5.7q-1.514,5.79-3.2,11.689c20.825,2.578,33.808,5.771,39.94,8.129-4.574,1.838-14.476,4.644-35.394,7.185-3.051.371-6.219.719-9.486,1.046q6.337-20.089,10.82-38.951c72.747,8.341,103.072,24.83,103.072,32.013C443.92,224.265,443.328,236.324,391.86,247.4Z"/><path d="M146.866,412.15a6.006,6.006,0,0,0-6.24,5.751l-.41,10.049a6,6,0,0,0,5.751,6.24c.083,0,.166,0,.248,0a6,6,0,0,0,5.991-5.755l.41-10.049A6,6,0,0,0,146.866,412.15Z"/><path d="M152.023,300.079a6,6,0,0,0-6.266,5.722L142,388.517a6,6,0,0,0,5.722,6.266c.093,0,.185.006.277.006a6,6,0,0,0,5.989-5.728l3.757-82.715A6,6,0,0,0,152.023,300.079Z"/></svg>