<?xml version="1.0" encoding="utf-8"?>
<!-- Generator: Adobe Illustrator 16.0.0, SVG Export Plug-In . SVG Version: 6.00 Build 0)  -->
<!DOCTYPE svg PUBLIC "-//W3C//DTD SVG 1.1//EN" "http://www.w3.org/Graphics/SVG/1.1/DTD/svg11.dtd">
<svg version="1.1" id="Calque_1" xmlns="http://www.w3.org/2000/svg" xmlns:xlink="http://www.w3.org/1999/xlink" x="0px" y="0px"
	 width="315.242px" height="56.738px" viewBox="0 0 315.242 56.738" enable-background="new 0 0 315.242 56.738"
	 xml:space="preserve">
<g>
	<g>
		<g>
			<path fill="#36C2AF" d="M123.327,3.658c0-1.013,0.551-1.52,1.654-1.52c0.918,0,1.91,0.271,2.979,0.814
				c0.764-0.76,1.779-1.14,3.053-1.14c0.773,0,1.459,0.271,2.057,0.814c0.598,0.543,0.896,1.285,0.896,2.226
				c0,0.471-0.098,0.923-0.293,1.357c-0.197,0.435-0.402,0.796-0.617,1.086c-0.213,0.29-0.57,0.624-1.07,1.004
				c-0.498,0.38-0.883,0.651-1.15,0.814c-0.268,0.163-0.74,0.435-1.418,0.814s-1.109,0.625-1.293,0.733
				c-1.434-1.049-2.592-2.234-3.475-3.556C123.767,5.784,123.327,4.635,123.327,3.658z"/>
		</g>
		<g>
			<g>
				<path fill="#FFFFFF" d="M2.646,51.756c0-1.701,0.066-2.714,0.2-3.04c0.998-0.651,2.712-0.977,5.144-0.977
					c0.477,0,0.794,0.018,0.954,0.054c0-1.846-0.037-4.65-0.109-8.414c-0.073-3.764-0.108-6.604-0.108-8.523
					c0-2.864,0.036-5.021,0.108-6.472c-0.281,0.153-1.006,0.229-2.171,0.229c-2.292,0-3.76-0.185-4.403-0.555
					c-0.322-0.221-0.482-1.793-0.482-4.714c0-1.554,0.06-2.544,0.181-2.968c0.763-1.095,2.935-1.643,6.515-1.643
					c3.399,0,5.458,0.071,6.174,0.212c0.178,0.672,0.268,1.29,0.268,1.855c0,0.283-0.018,0.442-0.054,0.477
					c0.544-0.176,1.718-0.717,3.518-1.622c1.8-0.904,3.154-1.356,4.063-1.356c2.103,0,3.943,0.787,5.521,2.361
					c1.577,1.575,2.71,3.412,3.399,5.51c0.689,2.1,1.034,4.199,1.034,6.297c0,3.691-1.08,6.958-3.239,9.799
					c-2.159,2.842-5.071,4.262-8.735,4.262c-1.275,0-2.659-0.217-4.149-0.651c0,0.073,0.027,0.787,0.082,2.145
					c0.054,1.356,0.045,2.796-0.027,4.315c0,3.366-0.091,5.229-0.271,5.592c-1.267,1.086-4.036,1.629-8.306,1.629
					c-1.006,0-1.91-0.037-2.714-0.109s-1.398-0.162-1.78-0.271c-0.382-0.108-0.694-0.217-0.935-0.325
					c-0.242-0.108-0.383-0.199-0.422-0.271l-0.121-0.055C2.356,54.199,2.646,53.276,2.646,51.756z M15.621,23.525
					c0.036,1.558,0.072,3.15,0.108,4.779c0.036,1.628,0.063,2.877,0.082,3.746c0.018,0.869,0.045,1.539,0.082,2.009
					c0,0.651,0.472,1.303,1.419,1.954c0.946,0.651,2.001,0.977,3.166,0.977c1.238,0,2.266-0.461,3.085-1.384
					c0.819-0.923,1.365-1.936,1.638-3.04c0.273-1.104,0.41-2.234,0.41-3.393c0-2.366-0.573-4.242-1.72-5.629
					c-1.147-1.386-2.413-2.08-3.795-2.08c-0.874,0-1.837,0.258-2.892,0.772C16.148,22.752,15.621,23.182,15.621,23.525z"/>
			</g>
			<g>
				<path fill="#FFFFFF" d="M36.087,30.633c0-4.062,1.476-7.781,4.428-11.16c2.952-3.377,6.257-5.067,9.917-5.067
					c2.24,0,4.155,0.676,5.745,2.028s2.385,3.114,2.385,5.285c0,2.574-1.055,4.777-3.166,6.607c-2.113,1.831-4.9,2.746-8.365,2.746
					c-1.979,0-3.366-0.311-4.157-0.933c0.036,1.741,0.648,3.127,1.836,4.161s2.555,1.55,4.103,1.55c2.018,0,3.658-0.796,4.919-2.389
					c0-0.29,0.055-0.597,0.163-0.923c1.592-1.307,3.312-1.959,5.157-1.959c0.361,0,0.633,0.019,0.814,0.054
					c2.389,1.305,3.854,3.441,4.397,6.411c-0.037,0.29-0.172,0.597-0.408,0.923c-0.234,0.326-0.479,0.606-0.732,0.841
					c-0.254,0.235-0.615,0.507-1.086,0.814s-0.841,0.534-1.112,0.679s-0.671,0.362-1.194,0.651c-0.525,0.29-0.824,0.453-0.896,0.488
					c-0.217,0-0.398-0.027-0.543-0.081c-0.145-0.055-0.28-0.145-0.406-0.271c-0.127-0.127-0.209-0.218-0.244-0.271
					c-0.037-0.055-0.109-0.198-0.217-0.435c-0.109-0.235-0.182-0.37-0.218-0.407c-2.671,1.773-5.54,2.66-8.608,2.66
					c-3.445,0-6.391-1.104-8.838-3.313C37.311,37.115,36.087,34.218,36.087,30.633z M44.601,24.249c0,1.184,0.863,1.775,2.591,1.775
					c1.295,0,2.537-0.305,3.725-0.915s1.782-1.363,1.782-2.26c0-0.609-0.207-1.246-0.621-1.91c-0.413-0.663-1.071-0.996-1.97-0.996
					c-1.117,0-2.314,0.449-3.592,1.345C45.24,22.187,44.601,23.173,44.601,24.249z"/>
			</g>
			<g>
				<path fill="#FFFFFF" d="M64.968,16.157c0-0.802,0.113-1.313,0.338-1.532c0.678-0.109,1.563-0.165,2.654-0.165h1.242V4.308
					c1.837-0.144,3.021-0.216,3.551-0.216c0.531,0,1.609,0.072,3.234,0.216l0.598,10.261c4.037,0.183,6.35,0.438,6.938,0.766
					c0.55,0.949,0.826,2.409,0.826,4.378c0,0.803-0.111,1.314-0.332,1.533c-1.145,0.145-2.454,0.217-3.93,0.217
					c-0.479,0-1.199-0.009-2.158-0.027c-0.959-0.018-1.679-0.027-2.158-0.027c0,1.199-0.01,2.707-0.025,4.522
					c-0.019,1.817-0.027,3.106-0.027,3.869c0,2.834,0.189,4.568,0.569,5.204c0.38,0.636,1.419,0.954,3.121,0.954
					c0.651,0,1.194-0.036,1.628-0.108l-0.325-1.145l4.994-1.144c0.362,1.049,0.543,2.279,0.543,3.689
					c0,2.333-0.235,3.804-0.706,4.415c-3.547,0.502-6.496,0.754-8.848,0.754c-3.018,0-5.003-0.434-5.956-1.299
					c-0.425-0.396-0.761-0.919-1.007-1.568c-0.248-0.649-0.416-1.579-0.505-2.787s-0.151-2.417-0.188-3.625
					c-0.036-1.208-0.091-2.975-0.163-5.3c-0.072-2.324-0.162-4.522-0.271-6.593c-1.213-0.109-2.141-0.347-2.785-0.711
					C65.252,19.586,64.968,18.127,64.968,16.157z"/>
			</g>
			<g>
				<path fill="#FFFFFF" d="M88.898,40.355c0.218-3.763,1.501-6.351,3.854-7.763c0.257-0.036,0.643-0.054,1.157-0.054
					c1.936,0,3.414,0.633,4.437,1.9c0,0.037,0.009,0.1,0.027,0.19c0.018,0.091,0.027,0.154,0.027,0.19
					c0,0.109-0.037,0.308-0.107,0.597c0.324,0.543,0.908,0.987,1.756,1.33c0.846,0.344,1.754,0.516,2.727,0.516
					c1.367,0,2.455-0.326,3.266-0.977s1.215-1.429,1.215-2.334c0-1.772-1.479-2.732-4.436-2.877
					c-1.133-0.036-2.039-0.102-2.721-0.198c-0.68-0.095-1.611-0.226-2.793-0.392c-1.184-0.166-2.154-0.427-2.915-0.785
					c-0.76-0.358-1.529-0.805-2.308-1.342c-0.779-0.536-1.367-1.252-1.766-2.146s-0.598-1.932-0.598-3.113
					c0-2.788,1.121-4.898,3.363-6.328c2.242-1.43,5.021-2.146,8.342-2.146c2.879,0,5.324,0.315,7.34,0.947
					c0.217-0.361,0.512-0.724,0.891-1.086c0.377-0.361,0.674-0.579,0.889-0.651c2.672,0.254,4.441,1.148,5.311,2.684
					c-0.217,3.752-1.502,6.333-3.855,7.739c-0.252,0.037-0.629,0.055-1.131,0.055c-1.906,0-3.363-0.644-4.369-1.933
					c0-0.037-0.008-0.101-0.027-0.193c-0.018-0.091-0.025-0.157-0.025-0.194c0-0.11,0.035-0.312,0.107-0.607
					c-0.396-0.479-1.107-0.883-2.135-1.215c-1.025-0.331-2.078-0.497-3.156-0.497c-2.773,0-4.159,0.939-4.159,2.817
					c0,2.21,2.175,3.388,6.526,3.535c1.236,0.037,2.127,0.087,2.668,0.152c0.541,0.065,1.271,0.153,2.188,0.265
					c0.918,0.111,1.721,0.338,2.408,0.683c0.688,0.345,1.383,0.789,2.09,1.333c0.705,0.544,1.229,1.26,1.574,2.149
					c0.344,0.889,0.516,1.931,0.516,3.127c0,5.718-4.172,8.578-12.516,8.578c-2.821,0-5.172-0.326-7.053-0.978
					c-0.588,1.086-1.01,1.664-1.268,1.737C91.548,42.816,89.767,41.912,88.898,40.355z"/>
			</g>
			<g>
				<path fill="#FFFFFF" d="M119.093,37.389c0-1.883,0.1-2.954,0.301-3.211c0.426-0.258,0.957-0.424,1.596-0.499
					c0.426-0.071,1.35-0.107,2.771-0.107c-0.217-2.261-0.326-4.719-0.326-7.375c0-2.907,0.184-4.755,0.553-5.545
					c-1.777,0-2.957-0.071-3.539-0.215c0.037-0.969,0.164-1.992,0.381-3.069c0.072-0.466,0.289-1.381,0.652-2.746
					c1.354-0.251,3.623-0.376,6.809-0.376c1.072,0,2.061,0.072,2.965,0.215c0.904,0.144,1.594,0.315,2.07,0.512
					c0.475,0.197,0.713,0.386,0.713,0.565c0.061,0,0.092,0.646,0.092,1.938c0,2.046-0.084,3.339-0.25,3.876
					c-0.066,0.215-0.268,0.323-0.6,0.323c-1.301,0-2.129-0.09-2.479-0.27c-0.387,2.512-0.58,5.779-0.58,9.799
					c0,1.651,0.053,2.513,0.158,2.584c0.211-0.036,0.51-0.054,0.896-0.054c1.303,0,2.352,0.204,3.146,0.609
					c0.131,0.147,0.195,0.48,0.195,0.997c0,0.924-0.127,2.032-0.381,3.323c-0.256,1.292-0.619,2.178-1.09,2.659
					c-0.436,0.442-1.854,0.664-4.25,0.664c-5.67,0-8.813-0.535-9.426-1.605C119.218,39.898,119.093,38.902,119.093,37.389z"/>
			</g>
			<g>
				<path fill="#FFFFFF" d="M137.386,16.157c0-0.802,0.113-1.313,0.338-1.532c0.678-0.109,1.563-0.165,2.654-0.165h1.242V4.308
					c1.838-0.144,3.021-0.216,3.551-0.216c0.531,0,1.609,0.072,3.234,0.216l0.598,10.261c4.037,0.183,6.35,0.438,6.938,0.766
					c0.551,0.949,0.826,2.409,0.826,4.378c0,0.803-0.111,1.314-0.332,1.533c-1.145,0.145-2.453,0.217-3.93,0.217
					c-0.48,0-1.199-0.009-2.158-0.027c-0.959-0.018-1.678-0.027-2.158-0.027c0,1.199-0.01,2.707-0.025,4.522
					c-0.018,1.817-0.027,3.106-0.027,3.869c0,2.834,0.189,4.568,0.57,5.204c0.379,0.636,1.418,0.954,3.119,0.954
					c0.652,0,1.195-0.036,1.629-0.108l-0.326-1.145l4.996-1.144c0.361,1.049,0.543,2.279,0.543,3.689
					c0,2.333-0.236,3.804-0.707,4.415c-3.547,0.502-6.496,0.754-8.848,0.754c-3.018,0-5.002-0.434-5.957-1.299
					c-0.424-0.396-0.76-0.919-1.006-1.568c-0.248-0.649-0.416-1.579-0.504-2.787c-0.09-1.208-0.152-2.417-0.188-3.625
					c-0.037-1.208-0.092-2.975-0.164-5.3c-0.072-2.324-0.162-4.522-0.271-6.593c-1.213-0.109-2.141-0.347-2.785-0.711
					C137.669,19.586,137.386,18.127,137.386,16.157z"/>
			</g>
			<g>
				<path fill="#FFFFFF" d="M157.417,10.498c0-2.429,0.254-4.383,0.762-5.863c0.686-0.036,2.152-0.117,4.396-0.244
					c2.244-0.126,4.496-0.226,6.76-0.299c2.264-0.072,4.578-0.108,6.945-0.108c2.369,0,4.713,0.037,7.029,0.108
					c2.318,0.073,4.662,0.172,7.033,0.299c2.371,0.127,3.883,0.208,4.533,0.244c0.506,1.479,0.76,3.434,0.76,5.863
					c0,1.117-0.127,2.095-0.379,2.932c-1.811,0.796-3.096,1.194-3.855,1.194c-1.592,0-2.932-0.506-4.018-1.52l-0.922-2.42
					c-0.471-0.248-2.516-0.418-6.137-0.512c0.219,4.668,0.328,9.518,0.328,14.549c0,3.909-0.201,6.913-0.602,9.012
					c0.164,0,0.543,0.054,1.135,0.163c0.855,0.145,1.432,0.308,1.729,0.489c0.193,0.29,0.289,1.394,0.289,3.312
					c0,1.412-0.121,2.334-0.363,2.768c-0.555,1.014-2.65,1.521-6.287,1.521c-3.85,0-6.066-0.507-6.648-1.521
					c-0.254-0.434-0.381-1.375-0.381-2.822c0-1.882,0.107-2.967,0.326-3.257c0.324-0.181,0.959-0.344,1.902-0.489
					c0.652-0.108,1.068-0.163,1.25-0.163c-0.402-2.099-0.602-5.103-0.602-9.012c0-5.032,0.109-9.881,0.328-14.549
					c-3.621,0.093-5.668,0.264-6.137,0.512l-0.924,2.42c-1.086,1.014-2.424,1.52-4.016,1.52c-0.762,0-2.047-0.398-3.855-1.194
					C157.544,12.592,157.417,11.615,157.417,10.498z"/>
			</g>
			<g>
				<path fill="#FFFFFF" d="M193.302,30.263c0-4.458,1.342-8.243,4.023-11.354c2.684-3.11,6.164-4.666,10.441-4.666
					c1.949,0,3.637,0.352,5.063,1.055c1.428,0.703,2.529,1.677,3.307,2.921c0.775,1.244,1.336,2.597,1.678,4.058
					c0.342,1.46,0.516,3.075,0.516,4.841c0,5.027-1.273,8.852-3.818,11.474c-2.545,2.623-5.855,3.934-9.934,3.934
					c-2.18,0-4.049-0.376-5.611-1.127c-1.561-0.752-2.732-1.76-3.514-3.025c-0.779-1.265-1.334-2.557-1.66-3.877
					C193.464,33.178,193.302,31.767,193.302,30.263z M201.12,29.837c0,1.776,0.557,3.304,1.674,4.583
					c1.117,1.279,2.451,1.918,4,1.918c1.332,0,2.484-0.541,3.457-1.625c0.973-1.083,1.639-2.238,2-3.463
					c0.359-1.226,0.541-2.372,0.541-3.438c0-1.598-0.488-2.993-1.459-4.183c-0.975-1.19-2.199-1.786-3.676-1.786
					c-1.801,0-3.342,0.844-4.619,2.531C201.759,26.063,201.12,27.883,201.12,29.837z"/>
			</g>
			<g>
				<path fill="#FFFFFF" d="M221.421,51.756c0-1.701,0.066-2.714,0.201-3.04c0.998-0.651,2.713-0.977,5.145-0.977
					c0.477,0,0.793,0.018,0.953,0.054c0-1.846-0.037-4.65-0.109-8.414c-0.072-3.764-0.109-6.604-0.109-8.523
					c0-2.864,0.037-5.021,0.109-6.472c-0.281,0.153-1.006,0.229-2.172,0.229c-2.291,0-3.76-0.185-4.402-0.555
					c-0.322-0.221-0.482-1.793-0.482-4.714c0-1.554,0.061-2.544,0.18-2.968c0.764-1.095,2.936-1.643,6.516-1.643
					c3.398,0,5.457,0.071,6.174,0.212c0.178,0.672,0.268,1.29,0.268,1.855c0,0.283-0.018,0.442-0.053,0.477
					c0.545-0.176,1.717-0.717,3.518-1.622c1.799-0.904,3.154-1.356,4.063-1.356c2.104,0,3.943,0.787,5.521,2.361
					c1.576,1.575,2.709,3.412,3.398,5.51c0.688,2.1,1.033,4.199,1.033,6.297c0,3.691-1.08,6.958-3.238,9.799
					c-2.158,2.842-5.07,4.262-8.734,4.262c-1.277,0-2.66-0.217-4.15-0.651c0,0.073,0.027,0.787,0.082,2.145
					c0.053,1.356,0.045,2.796-0.027,4.315c0,3.366-0.092,5.229-0.271,5.592c-1.268,1.086-4.037,1.629-8.307,1.629
					c-1.006,0-1.91-0.037-2.715-0.109c-0.803-0.072-1.396-0.162-1.779-0.271c-0.381-0.108-0.693-0.217-0.934-0.325
					c-0.242-0.108-0.383-0.199-0.424-0.271l-0.119-0.055C221.132,54.199,221.421,53.276,221.421,51.756z M234.396,23.525
					c0.037,1.558,0.072,3.15,0.109,4.779c0.035,1.628,0.063,2.877,0.082,3.746c0.018,0.869,0.045,1.539,0.08,2.009
					c0,0.651,0.473,1.303,1.42,1.954c0.945,0.651,2.002,0.977,3.166,0.977c1.236,0,2.266-0.461,3.084-1.384s1.365-1.936,1.639-3.04
					c0.273-1.104,0.41-2.234,0.41-3.393c0-2.366-0.574-4.242-1.721-5.629c-1.146-1.386-2.412-2.08-3.795-2.08
					c-0.873,0-1.838,0.258-2.893,0.772C234.923,22.752,234.396,23.182,234.396,23.525z"/>
			</g>
		</g>
	</g>
	<g>
		<path fill="#36C2AF" d="M313.776,14.572c-1.518-6.138-6.412-10.91-11.901-11.606c-5.346-0.674-10.968,2.854-15.142,7.05
			c-4.174-4.197-9.794-7.732-15.142-7.05c-5.488,0.696-10.382,5.468-11.901,11.605c-1.265,5.11-0.383,10.484,2.622,15.975
			c3.063,5.595,7.816,10.41,11.615,13.98c2.112,1.984,4.341,3.85,6.626,5.544c0.063,0.047,0.128,0.091,0.195,0.133l1.299,0.813
			c-0.11,0.69,0.02,1.422,0.419,2.061c0.878,1.405,2.729,1.832,4.134,0.953l0.13-0.082l0.131,0.082
			c0.495,0.31,1.045,0.458,1.589,0.458c1,0,1.977-0.5,2.546-1.409c0.4-0.64,0.53-1.372,0.42-2.062l1.3-0.813
			c0.067-0.042,0.133-0.087,0.197-0.135c2.289-1.699,4.518-3.564,6.625-5.544c3.799-3.57,8.553-8.385,11.614-13.979
			C314.159,25.056,315.042,19.682,313.776,14.572z M305.891,27.665c-2.097,3.831-5.233,7.352-8.173,10.275
			c-0.841-0.536-2.026-0.678-3.039-0.479c-0.902,0.176-1.816,0.521-2.424,1.212c-0.606,0.691-0.391,2.639-0.391,2.639
			c0.336,0.376,0.731,0.706,1.16,0.977c-1.174,1.005-2.368,1.981-3.591,2.892l-2.701,1.689l-0.041-0.025
			c3.38-2.362,2.25-8.938-0.418-12.53c-0.516-0.696-1.09-1.278-1.699-1.696c-3.198-2.196-11.295-4-13.87-0.292
			c-1.164-1.487-2.244-3.044-3.13-4.662c-2.291-4.187-2.965-7.998-2.061-11.652c0.922-3.726,3.795-6.71,6.831-7.095
			c3.546-0.452,8.756,3.417,12.063,7.469c0.57,0.698,1.423,1.104,2.324,1.104c0.901,0,1.755-0.405,2.325-1.104
			c3.305-4.052,8.51-7.912,12.063-7.469c3.037,0.385,5.91,3.369,6.832,7.095C308.857,19.667,308.183,23.479,305.891,27.665z"/>
		<path fill="#36C2AF" d="M298.964,25.376c-1.139-0.488-2.329-0.072-3.302,0.432c-0.978,0.506-1.894,1.103-2.736,1.78
			c-0.918,0.734-1.782,1.634-1.952,2.834c-0.725,5.127,6.157,3.066,7.867,1.444c0.895-0.847,1.734-1.832,1.921-3.091
			C300.949,27.515,300.269,25.932,298.964,25.376z"/>
		<path fill="#36C2AF" d="M293.37,23.492c0.404-1.12,0.491-2.435-0.161-3.578c-2.778-4.849-9.388,2.792-8.157,6.019
			c0.539,1.41,3.396,1.983,3.396,1.983C290.771,27.247,292.611,25.592,293.37,23.492z"/>
		<path fill="#36C2AF" d="M281.774,16.883c-1.018-0.655-2.383-0.167-3.377,0.524c-2.066,1.433-3.961,4.764-1.529,6.862
			c0.934,0.807,1.85,0.943,2.674,0.664c1.998-0.681,3.457-3.814,3.322-5.809C282.808,18.264,282.501,17.349,281.774,16.883z"/>
	</g>
</g>
</svg>
