<svg id="Layer_1" data-name="Layer 1" xmlns="http://www.w3.org/2000/svg" viewBox="0 0 512 512"><path d="M386.1,347.633Z"/><path d="M371.378,347.235l.028,0a.705.705,0,0,0-.041-.066Z"/><path d="M216.989,228.746c3.664-1.037,14.578-3.1,21.008-.241a5,5,0,1,0,4.063-9.138c-10.9-4.844-26.114-.724-27.812-.239a5,5,0,0,0,2.741,9.618Z"/><path d="M178.4,260.252a115.738,115.738,0,0,0,17.838,3.057c3.39,4.3,13.585,15.5,27.878,15.5a5,5,0,0,0,0-10c-5.137,0-9.684-2.332-13.211-5,18.957-.451,37.192-4.966,53.4-11.034,3.249,1.822,9.674,4.982,16.493,5.834a5.119,5.119,0,0,0,.626.039,5,5,0,0,0,.614-9.962,27.361,27.361,0,0,1-4.988-1.155c6.085-2.728,11.783-5.6,17-8.447a57.788,57.788,0,0,0,8.639-6.1c18.865,10.5,40.942,20.163,56.453,15.935a5,5,0,0,0,2.815-7.64c-14.063-20.628-9.2-34.965-9.007-35.517a5,5,0,0,0-3.984-6.728c-19.317-2.688-34.532,10.557-46.752,21.2q-.333.291-.664.578c-5.209-3.033-10-5.981-14.012-8.453-3.781-2.327-7.047-4.338-9.631-5.8q-8.277-4.693-16.181-8.444l.489-.332c-1.712-2.525-3.579-6.122-2.75-8.913.758-2.551,3.609-3.783,3.605-3.783a5,5,0,0,0-.022-9.33c-52.177-19.979-75.7,7.638-77.09,9.349a66.736,66.736,0,0,0-10.128,3.386c-30.724,13.123-38.993,44.558-39.33,45.889a5.22,5.22,0,0,0,1.292,4.958C138.354,239.917,152.062,253.554,178.4,260.252Zm166.559-30.466a66.3,66.3,0,0,0,4.477,10.165c-8.006-.348-17.788-3.789-27.583-8.359.356,0,.714,0,1.08,0A124.474,124.474,0,0,0,344.954,229.786Zm-2.716-21.037a45.354,45.354,0,0,0,.322,11.324,128.674,128.674,0,0,1-26.339,1.366C324.125,215.011,332.742,209.372,342.238,208.749Zm-90.716-26.377a14.783,14.783,0,0,0-1.593,3.463,15.5,15.5,0,0,0-.5,6.907q-23.706-9.42-43.655-9.781C215.062,178.771,229.979,175.862,251.522,182.372Zm-71.663,15.271c23.537-9.991,54.862-4.064,93.109,17.616,2.427,1.375,5.621,3.342,9.32,5.619,3.358,2.068,7.085,4.362,11.065,6.728a35.69,35.69,0,0,1-4.106,2.7c-33.339,18.219-65.536,25.982-94.052,22.829,4.461-6.186,12.653-20.582,7.13-37.151a5,5,0,1,0-9.486,3.162c5.321,15.965-7.4,30.253-7.564,30.437a4.985,4.985,0,0,0-1.04,1.769c-.926-.2-1.85-.415-2.768-.642a95.276,95.276,0,0,1-23.684-9.3l.071-.016a4.366,4.366,0,0,0,2.009-7.4l-1.114-1.073a4.384,4.384,0,0,0-3.785-1.157,24.5,24.5,0,0,1-7.013.014C151.419,223.176,160.527,205.85,179.859,197.643Z"/><path d="M486.066,409.617H359.512a228,228,0,0,0,124.506-203.2A225.6,225.6,0,0,0,459.4,103.258a230.117,230.117,0,0,0-65.82-78.684A67.819,67.819,0,0,0,352.824,11H159.177a67.817,67.817,0,0,0-40.754,13.573A230.113,230.113,0,0,0,52.6,103.258,228.269,228.269,0,0,0,65,331a228.428,228.428,0,0,0,87.486,78.617H25.934a5,5,0,0,0-5,5v39.44a5,5,0,0,0,5,5H59.165L51.4,494.942A5,5,0,0,0,56.281,501H87.849a5,5,0,0,0,4.415-2.653l20.881-39.29h285.71l20.881,39.29A5,5,0,0,0,424.151,501h31.568a5,5,0,0,0,4.886-6.058l-7.77-35.885h33.231a5,5,0,0,0,5-5v-39.44A5,5,0,0,0,486.066,409.617ZM61.517,107.789a220.071,220.071,0,0,1,62.945-75.245A57.763,57.763,0,0,1,159.177,21H352.824A57.763,57.763,0,0,1,387.54,32.544a220.068,220.068,0,0,1,62.944,75.245q4.221,8.3,7.68,16.844c-.856.567-1.743,1.158-2.693,1.794-4.524,3.025-9.881,6.605-16.043,10.138-29.716-14.249-59.1-13.188-78.731-9.689a145.048,145.048,0,0,0-35.417,10.942c-34.532-12.964-63.942-17.3-96-14.4a305.16,305.16,0,0,0-47.619,8.514C124.029,108.8,75.008,117.341,54.578,122.866,56.7,117.781,59,112.75,61.517,107.789Zm277.544,35.539c-.137-.058-.069-.029,0,0,16.956-6.124,52.245-15.336,88.957-.839-22.047,10.212-52.2,16.442-88.944.845C339.138,143.36,339.188,143.381,339.061,143.328ZM50.046,134.706c9.864-3.294,57.116-16.924,114.89,1.8-9.982,2.924-18.943,5.653-27.263,7.055-30.051,6-45.7,9.115-90.237-.926C48.249,139.973,49.128,137.334,50.046,134.706ZM73.372,325.528A218.759,218.759,0,0,1,44.741,152.274c47.036,10.642,64.322,7.191,94.89,1.089a183.3,183.3,0,0,0,22.15-5.533c16.336-4.769,41.023-11.977,68.4-14.452,35.063-3.166,65.592,2.432,105.378,19.325,17.146,7.281,32.971,10.113,47.332,10.113,36.15,0,63-17.954,78.136-28.077l.758-.506a218.5,218.5,0,0,1-23.16,191.3,219.479,219.479,0,0,1-27.379,33.959,55.289,55.289,0,0,0-15.944-9.4c-.041.165-.083.33,0,0h0l.01-.042c.021-.081.031-.122.034-.132,6.166-24.456,13-51.778,5.62-109.6a5,5,0,1,0-9.92,1.267c7.159,56.081,1.006,82.455-4.945,106.055-.083.329-.042.164,0,0a56.586,56.586,0,0,0-14.7-.4c.04.071.069.136-.028,0-.051-.112-.039-.107-.013-.069-.328-1.762-1.124-9.3,3.266-33,1.51-8.151,2.657-14.819,3.411-19.819a5,5,0,1,0-9.889-1.49c-.737,4.889-1.866,11.446-3.354,19.488-2.793,15.078-4.091,26.062-3.861,32.645a20.1,20.1,0,0,0,.662,4.9,110.2,110.2,0,0,0-13.789,5.247c-.162-7-.266-20.713.605-39.017a5,5,0,1,0-9.988-.475c-1.149,24.116-.648,40.108-.481,44.186-8,3.915-15.533,7.582-20.818,7.582-18.24,0-33.949-3.21-46.689-9.541a61.956,61.956,0,0,0-45.449-3.667c-10.951,3.268-27.575,6.191-44.587,1.552a60.22,60.22,0,0,0-12.555-1.933c-.011-.023-.015-.047-.026-.07-6.651-13.917-.16-27.5-.038-27.749a5,5,0,0,0-8.936-4.487c-.34.674-7.651,15.544-1.743,32.417-3.075.212-6.149.563-9.181,1.018-2.984-8.877-9.115-32.429,1.411-52.527a5,5,0,1,0-8.857-4.64c-11.839,22.6-6.065,47.9-2.484,59.029-4.141.923-8.1,1.976-11.741,3.057-1.944-5.576-4.981-19.694-1.364-48.628A5,5,0,1,0,114.968,310c-3.7,29.565-.841,45.32,1.786,52.948-3.779,1.331-6.849,2.538-8.94,3.4A219.156,219.156,0,0,1,73.372,325.528Zm60.05,61.2c8.809-3.208,25.3-6.281,46.2,3.366a5,5,0,1,0,4.191-9.079C154.383,367.434,132,375.869,124,379.944q-3.928-2.991-7.721-6.151a178.968,178.968,0,0,1,29.3-8.3c.059-.011.117-.02.176-.033,10.854-1.983,22.392-2.681,32.023-.055,15.266,4.165,32.584,3.605,50.078-1.617a51.988,51.988,0,0,1,38.139,3.04c14.135,7.024,31.34,10.586,51.139,10.586,7.653,0,15.9-4.039,25.448-8.715,18.635-9.126,39.614-19.387,61.434-2.186q-4.017,3.716-8.217,7.224c-4.6-2.006-24.31-8.916-47.412,7.77a5,5,0,1,0,5.855,8.107c13.555-9.789,25.352-9.7,32.067-8.378a218.23,218.23,0,0,1-39.292,23.34,56.146,56.146,0,0,1-23.646,5.044H188.634a56.146,56.146,0,0,1-23.646-5.044A218.384,218.384,0,0,1,133.422,386.731ZM84.844,491H62.479L69.4,459.057H101.82Zm342.312,0L410.18,459.057H442.6L449.521,491Zm53.91-41.943H30.934v-29.44H481.066Z"/><path d="M339.061,143.328l.014.006-.013-.006Z"/><path d="M78.469,438.054h82.152a5,5,0,0,0,0-10H78.469a5,5,0,0,0,0,10Z"/><path d="M46.632,438.054h7.459a5,5,0,1,0,0-10H46.632a5,5,0,0,0,0,10Z"/></svg>