<?xml version="1.0" encoding="utf-8"?>
<!-- Generator: Adobe Illustrator 24.0.0, SVG Export Plug-In . SVG Version: 6.00 Build 0)  -->
<svg version="1.1" id="icons" xmlns="http://www.w3.org/2000/svg" xmlns:xlink="http://www.w3.org/1999/xlink" x="0px" y="0px"
	 viewBox="0 0 340 340" style="enable-background:new 0 0 340 340;" xml:space="preserve">
<g>
	<path d="M256.5,217.7c22.9-19.3,23.6-64.3,23.6-68.8c1.9-13.5,4.4-22.5,6.2-27.7c1.3-3.6,3.8-6.5,7.2-8.1c8.2-4,15.9-7.1,20.8-9
		c4.9-1.9,8.9-5.4,11.1-9.9c0.8-1.7,1.5-3.7,2.1-6c0.8-0.5,1.6-1,2.4-1.7c2.4-2.3,3.4-5.8,2.7-9.1l-0.1-0.5
		c-0.6-2.4-1.3-5.4-5.6-8.5c-3.1-2.2-7-3.6-9.1-4.3c-0.1-0.1-0.2-0.1-0.3-0.2c-8.3-4.2-18.6-11.2-24-15.7c-1.1-0.9-2.3-1.8-3.5-2.6
		l1.4-12.3c0.4-3.9-1.4-7.7-4.7-9.8c-3.3-2.1-7.5-2.1-10.9-0.1c-1.3,0.8-2.6,1.7-3.8,2.5c-1.8,1.3-2.2,3.8-0.9,5.6
		c1.3,1.8,3.8,2.2,5.6,0.9c1.1-0.8,2.2-1.5,3.3-2.2c1.1-0.7,2-0.2,2.4,0c0.4,0.2,1.2,0.9,1,2.1l-1,9c-2.9-1.2-5.9-2.1-9-2.7
		c-1.3-0.2-2.4-0.4-3.3-0.5c-1.5-5.2-3.6-10.4-6.4-15.4c-1.9-3.4-5.4-5.6-9.2-5.9c-3.9-0.3-7.6,1.3-10.1,4.4
		c-4.8,6.1-8.7,12.6-11,17c-1.1,2-2.5,3.8-4.1,5.3c-31,28.2-46.2,53.6-50.4,61.4c-4.9,0.1-10.2,1.6-14,2.9
		c-3.3,1.2-6.7,2.1-10.1,2.7c-11.4,1.9-22.6,2.7-33.4,2.4c-2.2-0.1-4,1.7-4.1,3.9s1.7,4,3.9,4.1c1.4,0,2.7,0,4.1,0
		c10,0,20.3-0.9,30.8-2.6c3.9-0.6,7.8-1.7,11.5-3c2.5-0.9,4.8-1.6,7-2c-0.4,1.7,0.4,3.6,2.1,4.5c0.6,0.3,1.2,0.4,1.8,0.4
		c1.4,0,2.8-0.8,3.6-2.2l2.7-5.3c0,0,0,0,0,0c0,0,0,0,0,0c0.1-0.3,14.6-29.3,49.8-61.3c2.3-2.1,4.3-4.6,5.8-7.4
		c2.2-4.1,5.8-10.2,10.3-15.8c0.8-1,2-1.5,3.2-1.4c1.2,0.1,2.3,0.8,2.9,1.8c2,3.6,3.7,7.3,4.9,11.1H257c-2.2,0-4,1.8-4,4s1.8,4,4,4
		h9.7c0.5,0,2.5,0.2,5.2,0.7c6,1.1,11.7,3.8,16.4,7.7c5,4.2,13.9,10.4,21.9,14.8c-2.1,7.4,0,13.9,5.8,18.2c0.9,0.7,1.9,1.2,2.9,1.5
		c-0.2,0.6-0.4,1.2-0.7,1.7c-1.3,2.7-3.7,4.8-6.8,6c-5.1,1.9-13,5.1-21.5,9.3l-18.4,8.8c-2,1-2.8,3.3-1.9,5.3
		c0.7,1.4,2.1,2.3,3.6,2.3c0.6,0,1.2-0.1,1.7-0.4l3-1.4c-1.9,5.8-4.3,14.8-6,27.6c0,0.2,0,0.4,0,0.6c0,0.5,0,49.6-23.6,65.1
		c-1.2,0.7-16.3,10.1-26.3,20.7c-0.2,0.2-0.4,0.5-0.6,0.8c-0.5,0.8-11.4,20.7-12.5,51.2c-0.2,5.7,1.2,11.2,4.2,15.9
		c2.4,3.9,5.2,7.1,8.3,9.6c0.5,0.4,0.7,0.9,0.7,1.4c0,0.9-0.8,1.7-1.7,1.7h-7.1c-3.2,0-6.2-1.4-8.2-3.8c-3-3.6-5.5-7.5-7.2-11.5
		c-1-2.2-1.6-4.6-1.7-7.1c-0.3-5.5-0.9-16.4-1.4-27.7l-2.2-34.7c-0.8-13.2-4.6-20.2-4.7-20.5c-1.1-1.9-3.5-2.6-5.4-1.6
		c-1.9,1-2.7,3.5-1.6,5.4c0,0.1,2.3,4.5,3.4,13c-6.6-0.3-20.3-2.1-34.1-11.7c-10.9-7.7-20.2-12-26.1-14.2l-14.7-8
		c-6.7-3.6-14.9-2.2-19.9,3.5c-5.5,6.2-9.3,15.1-11.1,26.5c-2.3,14-6.5,24.6-9.8,31.2c-1,0.8-2,1.7-3.1,2.6c-3,2.4-5.7,5.2-8,8.3
		c-4.7,6.2-10.8,16.1-13.4,27.9c-1,4.7-0.7,9.4,1,13.6c0.7,1.8,1.6,3.3,2.6,4.7c0.4,0.5,0.5,1.3,0.4,2.1c-0.3,1.2-1.4,2.1-2.6,2.1
		h-8.1c-2.4,0-4.5-1.3-5.6-3.5c-1.5-3-2.1-6.3-1.8-9.9l3.3-25.5c0.4-2.8,1.7-5.4,3.7-7.3c5-4.8,11.1-12.6,11.8-22.4
		c0-0.1,0-0.2,0-0.3v-2.8c0-11.7-2.2-22.9-6.5-33.1c-2.1-4.9-4.4-9.1-6.9-12.2c-0.6-1-4.2-7.4-3.8-13.3c0.1-1.5-0.6-2.9-1.9-3.7
		c-1.3-0.8-2.9-0.8-4.2,0l-6.4,3.8c-1.9,1.1-2.5,3.6-1.4,5.5c1.1,1.9,3.6,2.5,5.5,1.4l0.8-0.5c1.3,6.2,4.4,11.1,4.6,11.3
		c0.1,0.1,0.2,0.2,0.2,0.3c2.1,2.6,4.1,6.2,6,10.6c3.9,9.2,5.9,19.3,5.9,30v2.7c-0.6,7.6-6.1,14-9.3,17.1c-3.3,3.2-5.5,7.5-6.1,12.1
		L22,300.7c0,0.1,0,0.1,0,0.2c-0.4,5.1,0.5,9.9,2.6,14.2c2.4,4.9,7.3,7.9,12.8,7.9h8.1c5,0,9.3-3.4,10.4-8.4c0.7-3,0-6.2-1.8-8.6
		c-0.6-0.8-1.1-1.8-1.6-2.9c-1.1-2.7-1.3-5.8-0.6-9c2.2-10.3,7.7-19.1,11.9-24.7c2-2.6,4.2-4.9,6.7-6.9c12-9.6,16.8-17.7,17-18.1
		c0-0.1,0.1-0.2,0.1-0.2c8.1-16.8,16.4-27.5,21.9-33.6c2.9-3.2,7.5-4.3,11.6-2.8c3.5,1.3,8.3,3.4,14,6.6c-2.5,8.6-7.3,22.6-15.1,37
		c-1.4,2.6-3.5,4.8-6,6.3c-7.1,4.2-23.8,16.8-26.7,42.1c0,0,0,0.1,0,0.2c-0.1,0.8-0.2,4.7,3.7,9c0.5,0.6,0.8,1.3,0.8,2v1.2
		c0,1.5-1.2,2.7-2.7,2.7h-8.7c-3.8,0-6.9-2.9-7.1-6.7c0-0.6-0.1-1.3-0.1-1.9c-0.5-6.8-0.9-12.7,3.5-22.5c1.5-3.3,3.5-6.6,6.1-9.9
		c2.9-3.6,6.7-9.5,9-16.6c0.7-2.1-0.5-4.4-2.6-5c-2.1-0.7-4.4,0.5-5,2.6c-1.9,6-5.2,11-7.7,14.1c-3,3.8-5.3,7.7-7.1,11.6
		c-5.2,11.6-4.7,19.1-4.2,26.3c0,0.6,0.1,1.2,0.1,1.8c0.5,7.9,7.1,14.2,15.1,14.2H89c5.9,0,10.7-4.8,10.7-10.7v-1.2
		c0-2.6-1-5.2-2.8-7.3c-1.4-1.6-1.6-2.8-1.6-3.2c2.5-20.8,15.4-31.4,22.8-35.9c3.7-2.2,6.8-5.5,8.9-9.4
		c7.5-13.9,12.4-27.5,15.1-36.5c1.2,0.8,2.4,1.6,3.6,2.4c16,11.3,32,13.1,39.3,13.2l2,30.8c0.5,11.3,1.1,22.2,1.4,27.7
		c0.2,3.4,1,6.7,2.4,9.8c2.1,4.7,4.9,9.2,8.4,13.4c3.5,4.3,8.8,6.7,14.4,6.7h7.1c5.3,0,9.7-4.3,9.7-9.7c0-2.9-1.3-5.7-3.7-7.6
		c-2.4-2-4.6-4.5-6.6-7.7c-2.1-3.3-3.2-7.3-3-11.3c1-26.2,9.8-44.3,11.3-47.2c5.9-6.2,13.9-12.1,19.1-15.6
		c-1.6,11.5-3.3,28.4-3.3,48.3v4.4c0,12.3,5.2,23.7,14.3,31.4c0.3,0.3,0.6,0.5,1,0.8c0.8,0.6,1.3,1.6,1.3,2.7c0,1.9-1.6,3.5-3.5,3.5
		h-5.4c-3.5,0-6.8-1.8-8.8-4.8c-0.3-0.5-0.7-1.1-1.1-1.6c-7.3-10.4-11.2-22.7-11.2-35.6v-11.4c0-2.2-1.8-4-4-4s-4,1.8-4,4v11.4
		c0,14.6,4.4,28.5,12.7,40.2c0.4,0.5,0.7,1,1,1.4c3.4,5.2,9.2,8.3,15.5,8.3h5.4c6.4,0,11.5-5.2,11.5-11.5c0-3.5-1.5-6.7-4.2-8.9
		c-0.3-0.2-0.6-0.5-0.8-0.7c-7.3-6.2-11.5-15.4-11.5-25.3v-4.4C252.2,247.9,254.8,228.1,256.5,217.7z M317.7,72.6
		c1.5,0.6,3.2,1.4,4.6,2.4c1.8,1.3,2,1.9,2.4,3.8l0.1,0.6c0.1,0.5,0,1-0.4,1.4c-1,0.9-2.5,1-3.5,0.3
		C318.9,79.6,316.8,77.2,317.7,72.6z M95.3,300.9C95.3,300.9,95.3,300.9,95.3,300.9C95.3,300.9,95.3,300.9,95.3,300.9
		C95.3,300.9,95.3,300.9,95.3,300.9z M103.6,205.4c-4.9,5.4-11.9,14.4-19.1,27.5c0.7-2.8,1.3-5.9,1.8-9c1.6-9.7,4.8-17.4,9.2-22.4
		c2.6-2.9,6.8-3.6,10.2-1.8l3.2,1.7C106.9,202.4,105.1,203.7,103.6,205.4z"/>
	<path d="M41.5,135.8c0.1,2.3-0.3,4.6-1.2,6.9c-1.2,3.2-3.6,6-6.8,8.1c-1.6,1-3,2.1-4.4,3.3c-0.1,0.1-0.1,0.1-0.2,0.2l-2.9,2.9
		c-1.6,1.6-1.6,4.1,0,5.7c0.8,0.8,1.8,1.2,2.8,1.2c1,0,2-0.4,2.8-1.2l2.9-2.8c1-0.9,2.2-1.7,3.4-2.5c4.7-3,8.1-7.1,10-11.9
		c1.8-4.6,2.2-9.3,1.3-14c-0.2-0.9-0.7-1.7-1.3-2.3c0,0-0.1-0.1-0.1-0.1c-0.1-0.1-0.3-0.2-0.4-0.3c0,0-0.1-0.1-0.1-0.1
		c-1-0.6-10-6-5.2-19.7c0.4-1,4.8-10.6,16.9-8.5c0.3,0.1,6.5,1.3,10.7,6.8c-3.8-0.7-8.5-0.8-13.3,1c-2.1,0.8-3.1,3.1-2.4,5.1
		s3.1,3.1,5.1,2.4c5.9-2.1,11.6-0.2,14.3,1c0.4,2.3,0.8,6.6,0.4,11.1c-0.3,3.8,1.2,7.4,4.2,9.8c1.9,1.5,4.3,2.3,6.7,2.3
		c1.2,0,2.5-0.2,3.7-0.6c7-2.5,16.5-8.4,21.9-22.3c0,0,0,0,0-0.1c0,0,0,0,0-0.1c5.4-15.5,1.6-29.9-0.2-36.8
		c-3.2-12.3-10.4-22.9-20.3-29.7c-0.5-0.3-1-0.7-1.5-1c-18.6-11.9-47.2-8.7-63.8,7.1C16,64.5,10.5,74.5,8.2,86.3
		c-1.4,6.8-1.3,13.3,0.3,19.4C14.1,127.8,33.7,134.1,41.5,135.8z M16,87.9c2.1-10.2,6.7-18.8,13.8-25.5c13.8-13.2,38.6-16,54-6.1
		c0.4,0.3,0.9,0.6,1.3,0.9c8.3,5.7,14.4,14.7,17.1,25.1c2.6,9.9,4.4,20.6,0.4,32.1c-3.4,8.8-9.2,14.7-17.1,17.6
		c-1.3,0.5-2.3-0.1-2.8-0.4c-0.4-0.3-1.3-1.2-1.2-2.7c0.7-7.7-0.7-14.6-0.9-15.3c0,0,0,0,0,0c0,0,0,0,0,0c0,0,0,0,0,0c0,0,0,0,0,0
		c-3.6-17.6-19.8-20.6-20.5-20.7c-15.1-2.6-23.5,7.7-25.8,13.5c0,0.1,0,0.1-0.1,0.2c-2.6,7.5-2.2,13.6-0.4,18.4
		c-6.8-3.3-14.7-9.5-17.6-21C14.9,98.9,14.9,93.5,16,87.9z"/>
	<path d="M22.8,178c0.4,0,0.8-0.1,1.2-0.2c2.1-0.7,3.9-1.7,5.4-2.5c2.3-1.3,4.1-2.3,6.9-2.3c2.2,0,4-1.8,4-4s-1.8-4-4-4
		c-4.9,0-8,1.7-10.8,3.3c-1.3,0.7-2.6,1.4-4,1.9c-2.1,0.7-3.3,2.9-2.6,5C19.5,177,21.1,178,22.8,178z"/>
	<path d="M218.8,165.3c-4.5,5.2-7.6,10.8-9,16.7c-2.9,11.6-3.3,28.4,11,42.6c0.8,0.8,1.8,1.2,2.8,1.2c1,0,2.1-0.4,2.8-1.2
		c1.6-1.6,1.6-4.1,0-5.7c-11.7-11.6-11.2-25.4-8.9-35c1.2-4.6,3.6-9.1,7.3-13.4c0.2-0.3,0.5-0.5,0.7-0.8c4.1-5.2,4.2-12.5,0.4-18.1
		c-3.2-4.8-3.8-9.3-3.8-12.1c18.4-1.5,21.8-10.3,22.2-11.4c0.6-1.9-0.2-4-2-4.8l-0.3-0.2c-5.7-3-9.6-8.3-10.7-14.7
		c-1.1-6.3,0.8-12.5,5.1-17c1.5-1.6,2.7-2.4,2.7-2.4c1.2-0.8,2-2.2,1.9-3.6c-0.1-1.5-1-2.8-2.3-3.4c-1.3-0.6-2.3-1.3-3.2-2
		c1.6-0.3,3.2-0.7,4.7-1.3c5.8-2,11-5.6,15.6-10.8c1.1-1.3,2.4-2.5,3.8-3.7c1.7-1.4,1.9-3.9,0.5-5.6c-1.4-1.7-3.9-1.9-5.6-0.5
		c-1.7,1.4-3.3,2.9-4.7,4.5c-3.6,4.1-7.8,7-12.2,8.5c-3,1-6,1.5-9.1,1.4c-1.2,0-2.4,0.5-3.2,1.4s-1.1,2.2-0.9,3.4
		c0.1,0.6,1.1,4.9,5.8,8.7c-5.9,6.4-8.4,15-6.9,23.6c1.2,7.4,5.2,13.8,11,18.1c-2.4,1.7-7.2,3.6-16,3.9c-1.8,0.1-3.4,1.3-3.8,3.1
		c-0.1,0.4-2.4,10.6,4.8,21.3c1.9,2.8,1.8,6.3-0.1,8.7C219.1,164.9,218.9,165.1,218.8,165.3z"/>
	<path d="M280.9,68.2c0.4,0.1,0.9,0.2,1.3,0.2c1.7,0,3.2-1.1,3.8-2.7c0.7-2.1-0.4-4.4-2.5-5.1c-2.2-0.7-4.3-0.8-4.6-0.8
		c-2.2,0-4,1.8-4,4c0,2.2,1.8,4,4,4C279.1,67.8,280.1,67.9,280.9,68.2z"/>
</g>
</svg>
