<?xml version="1.0" encoding="utf-8"?>
<!-- Generator: Adobe Illustrator 16.0.0, SVG Export Plug-In . SVG Version: 6.00 Build 0)  -->
<!DOCTYPE svg PUBLIC "-//W3C//DTD SVG 1.1//EN" "http://www.w3.org/Graphics/SVG/1.1/DTD/svg11.dtd">
<svg version="1.1" id="Layer_1" xmlns="http://www.w3.org/2000/svg" xmlns:xlink="http://www.w3.org/1999/xlink" x="0px" y="0px"
	 width="800px" height="600px" viewBox="0 0 800 600" enable-background="new 0 0 800 600" xml:space="preserve">
<g>
	<path d="M400,482.487"/>
	<path d="M399.99,481.938h0.038c-0.018-0.031-0.035-0.061-0.057-0.091L399.99,481.938z"/>
	<path d="M385.075,318.707c5.047-1.429,20.083-4.271,28.941-0.332c3.476,1.545,7.547-0.02,9.093-3.496
		c1.546-3.476-0.02-7.548-3.496-9.093c-15.016-6.673-35.975-0.998-38.314-0.33c-3.659,1.044-5.78,4.855-4.737,8.514
		C377.604,317.629,381.416,319.749,385.075,318.707z"/>
	<path d="M301.946,362.11c8.069,2.044,16.285,3.451,24.574,4.211c4.67,5.924,18.715,21.354,38.405,21.354
		c3.805,0,6.888-3.084,6.888-6.889c0-3.803-3.083-6.888-6.888-6.888c-7.076,0-13.34-3.212-18.199-6.888
		c26.115-0.621,51.236-6.842,73.564-15.2c4.476,2.51,13.327,6.863,22.721,8.036c0.286,0.035,0.574,0.054,0.862,0.054
		c3.804-0.001,6.887-3.086,6.886-6.889c0-3.477-2.591-6.406-6.039-6.834c-2.337-0.315-4.636-0.848-6.872-1.592
		c8.383-3.759,16.232-7.714,23.419-11.636c4.216-2.432,8.199-5.245,11.901-8.403c25.989,14.465,56.402,27.775,77.77,21.952
		c3.671-1.002,5.834-4.79,4.832-8.459c-0.201-0.736-0.523-1.436-0.954-2.066c-19.372-28.418-12.674-48.168-12.407-48.929
		c1.352-3.557-0.437-7.534-3.993-8.885c-0.481-0.183-0.983-0.312-1.495-0.382c-26.611-3.704-47.571,14.543-64.406,29.206
		c-0.307,0.266-0.61,0.532-0.915,0.795c-7.176-4.178-13.775-8.239-19.303-11.644c-5.209-3.207-9.708-5.977-13.269-7.99
		c-7.601-4.311-15.032-8.188-22.291-11.633l0.674-0.458c-2.357-3.479-4.931-8.433-3.788-12.278c1.045-3.514,4.972-5.212,4.966-5.212
		c3.547-1.377,5.305-5.368,3.927-8.915c-0.703-1.813-2.141-3.243-3.956-3.938c-71.88-27.523-104.286,10.522-106.201,12.879
		c-4.768,1.18-9.434,2.739-13.952,4.665c-42.326,18.079-53.717,61.384-54.182,63.217c-0.642,2.432,0.033,5.021,1.78,6.831
		C246.778,334.096,265.663,352.883,301.946,362.11z M531.399,320.14c1.66,4.832,3.724,9.516,6.167,14.003
		c-11.028-0.479-24.504-5.22-37.997-11.516c0.49,0,0.982,0,1.487,0c10.166,0.071,20.317-0.761,30.336-2.487H531.399z
		 M527.658,291.159c-0.505,5.197-0.355,10.438,0.443,15.6c-11.999,1.868-24.157,2.499-36.285,1.882
		c10.882-8.855,22.753-16.624,35.835-17.481H527.658z M402.687,254.822c-0.935,1.489-1.672,3.093-2.194,4.771
		c-0.945,3.079-1.18,6.332-0.688,9.515c-21.772-8.651-41.819-13.142-60.14-13.474c12.788-5.772,33.338-9.78,63.016-0.812H402.687z
		 M303.963,275.859c32.424-13.763,75.578-5.598,128.268,24.269c3.343,1.894,7.743,4.603,12.839,7.74
		c4.626,2.85,9.761,6.01,15.244,9.27c-1.798,1.368-3.689,2.61-5.658,3.719c-45.928,25.1-90.283,35.793-129.566,31.45
		c6.146-8.521,17.431-28.354,9.822-51.18c-1.155-3.625-5.029-5.627-8.654-4.473c-3.625,1.155-5.626,5.029-4.472,8.655
		c0.019,0.058,0.038,0.116,0.058,0.173c7.33,21.994-10.194,41.678-10.42,41.931c-0.642,0.704-1.129,1.534-1.433,2.437
		c-1.275-0.275-2.548-0.571-3.813-0.884c-11.4-2.793-22.374-7.102-32.627-12.812l0.098-0.022c3.231-0.77,5.227-4.013,4.458-7.245
		c-0.268-1.125-0.854-2.148-1.69-2.949l-1.534-1.479c-1.386-1.33-3.322-1.922-5.214-1.593c-3.203,0.469-6.457,0.475-9.662,0.018
		c4.771-11.85,17.318-35.718,43.95-47.024H303.963z"/>
	<path d="M542.6,567.876c105.271-53.627,171.544-161.788,171.521-279.93c0.148-49.393-11.478-98.11-33.914-142.113
		c-21.684-42.493-52.679-79.546-90.674-108.395c-16.195-12.152-35.898-18.716-56.146-18.7h-266.77
		c-20.246-0.016-39.95,6.546-56.143,18.698c-37.998,28.85-68.995,65.902-90.679,108.397
		c-50.704,100.135-44.194,219.703,17.083,313.741c30.031,46.002,71.583,83.341,120.521,108.303c0,0,25.995,15.109,63.47,12.903
		l113.464,0.087C434.333,580.866,515.92,584.802,542.6,567.876z M132.079,152.076c20.737-40.637,50.378-76.071,86.714-103.659
		c13.797-10.344,30.581-15.924,47.824-15.903h266.77c17.243-0.021,34.027,5.56,47.825,15.903
		c36.336,27.588,65.977,63.021,86.713,103.659c3.877,7.623,7.403,15.357,10.58,23.204c-1.18,0.782-2.401,1.596-3.711,2.472
		c-6.232,4.167-13.611,9.099-22.1,13.966c-40.938-19.629-81.417-18.168-108.462-13.348c-16.842,2.917-33.238,7.983-48.79,15.073
		c-47.571-17.858-88.087-23.833-132.251-19.837c-22.143,2.167-44.079,6.09-65.601,11.729
		c-79.394-31.866-146.926-20.101-175.071-12.489C125.443,165.841,128.612,158.91,132.079,152.076z M514.427,201.034
		C514.238,200.955,514.331,200.995,514.427,201.034c23.358-8.436,71.974-21.127,122.549-1.155
		c-30.373,14.067-71.911,22.65-122.53,1.164C514.533,201.078,514.603,201.107,514.427,201.034z M116.276,189.156
		c13.589-4.538,78.684-23.315,158.274,2.479c-13.751,4.029-26.096,7.788-37.558,9.719c-41.398,8.266-62.957,12.557-124.312-1.275
		C113.801,196.412,115.012,192.778,116.276,189.156z M148.411,452.034c-45.904-70.559-60.206-157.101-39.443-238.676
		c64.797,14.66,88.611,9.906,130.721,1.5c10.32-1.903,20.512-4.45,30.514-7.622c22.505-6.57,56.514-16.5,94.229-19.91
		c48.303-4.361,90.361,3.351,145.17,26.623c23.62,10.031,45.421,13.932,65.205,13.932c49.8,0,86.789-24.734,107.641-38.679
		l1.044-0.698c30.768,88.045,18.984,185.378-31.905,263.537c-10.987,16.809-23.622,32.479-37.718,46.782
		c-6.541-5.52-13.968-9.897-21.965-12.949c-0.056,0.228-0.113,0.455,0,0l0,0l0.014-0.058c0.03-0.112,0.044-0.168,0.047-0.183
		c8.494-33.69,17.909-71.329,7.742-150.985c-0.481-3.773-3.932-6.441-7.705-5.96s-6.442,3.933-5.96,7.706l0,0
		c9.862,77.257,1.386,113.591-6.813,146.103c-0.114,0.452-0.058,0.225,0,0c-6.697-1.064-13.505-1.249-20.251-0.552
		c0.055,0.098,0.096,0.188-0.038,0c-0.071-0.154-0.054-0.147-0.019-0.095c-0.452-2.429-1.549-12.812,4.499-45.461
		c2.081-11.229,3.661-20.415,4.699-27.304c0.567-3.762-2.022-7.271-5.785-7.839c-3.762-0.565-7.271,2.024-7.837,5.786l0,0
		c-1.017,6.735-2.572,15.769-4.621,26.848c-3.848,20.771-5.636,35.902-5.318,44.972c0.023,2.279,0.33,4.547,0.911,6.751
		c-6.486,1.981-12.832,4.396-18.996,7.228c-0.223-9.644-0.366-28.535,0.834-53.75c0.226-3.798-2.67-7.059-6.467-7.285
		c-3.798-0.226-7.06,2.669-7.285,6.467c-0.004,0.055-0.006,0.109-0.007,0.164c-1.584,33.223-0.894,55.253-0.664,60.871
		c-11.021,5.394-21.397,10.444-28.679,10.444c-25.127,0-46.769-4.422-64.319-13.144c-19.47-9.581-41.857-11.388-62.611-5.051
		c-15.086,4.501-37.987,8.528-61.423,2.138c-5.655-1.495-11.453-2.389-17.296-2.664c-0.015-0.03-0.021-0.064-0.036-0.096
		c-9.162-19.172-0.22-37.885-0.052-38.227c1.666-3.421,0.243-7.544-3.177-9.21c-3.361-1.637-7.416-0.294-9.134,3.027
		c-0.469,0.929-10.54,21.414-2.401,44.659c-4.236,0.291-8.47,0.774-12.647,1.401c-4.111-12.229-12.557-44.675,1.944-72.361
		c1.817-3.342,0.581-7.525-2.761-9.342c-3.342-1.817-7.524-0.581-9.341,2.761c-0.034,0.063-0.067,0.125-0.099,0.189
		c-16.31,31.134-8.355,65.987-3.422,81.317c-5.705,1.272-11.159,2.724-16.175,4.213c-2.678-7.682-6.862-27.131-1.879-66.991
		c0.591-3.758-1.976-7.283-5.734-7.874c-3.758-0.592-7.283,1.977-7.875,5.734c-0.022,0.139-0.04,0.278-0.053,0.42
		c-5.097,40.729-1.158,62.434,2.46,72.94c-5.206,1.834-9.435,3.497-12.315,4.685C177.809,491.529,161.875,472.644,148.411,452.034z
		 M231.136,536.344c12.135-4.418,34.854-8.652,63.646,4.637c3.44,1.625,7.545,0.152,9.168-3.289c1.624-3.44,0.151-7.546-3.29-9.169
		c-0.035-0.016-0.07-0.033-0.106-0.048c-40.543-18.71-71.378-7.09-82.399-1.477c-3.607-2.747-7.153-5.571-10.636-8.474
		c13.105-4.951,26.609-8.776,40.364-11.434c0.081-0.016,0.161-0.028,0.242-0.045c14.953-2.732,30.848-3.694,44.115-0.076
		c21.031,5.738,44.888,4.967,68.988-2.229c17.409-5.333,36.197-3.835,52.541,4.188c19.473,9.677,43.174,14.583,70.449,14.583
		c10.543,0,21.904-5.563,35.058-12.006c25.672-12.572,54.572-26.707,84.632-3.011c-3.688,3.412-7.462,6.73-11.319,9.951
		c-6.337-2.763-33.489-12.282-65.316,10.704c-3.083,2.228-3.777,6.534-1.551,9.617c2.228,3.085,6.533,3.778,9.617,1.551
		c18.674-13.484,34.926-13.362,44.177-11.541c-16.868,12.583-35.011,23.36-54.13,32.153c-10.225,4.654-21.341,7.026-32.575,6.949
		H307.197c-11.234,0.077-22.351-2.295-32.575-6.949c-15.152-6.975-29.697-15.198-43.486-24.583V536.344z"/>
	<path d="M399.99,201.034l0.02,0.009L399.99,201.034L399.99,201.034z"/>
</g>
</svg>
