<svg xmlns="http://www.w3.org/2000/svg" viewBox="0 0 64 64"><g id="Layer_32" data-name="Layer 32"><path d="M33.127,9a29.681,29.681,0,0,0-11.872,2.467,7.623,7.623,0,0,0-1.487-2.113,4.621,4.621,0,0,0-6.536,0L9.576,13.009A9.274,9.274,0,0,0,2.72,16.5l-.481.6a5.65,5.65,0,0,0,1.089,8.1,35.517,35.517,0,0,0,17.8,6.652c.03.027.056.058.086.084A8.875,8.875,0,0,1,17,33a3,3,0,0,0,0,6h5.382l1.211,2.423A2.854,2.854,0,0,0,29,40.146a5.889,5.889,0,0,0-.618-2.618L27.217,35.2l1.529-1.529a4.322,4.322,0,0,0,.313-.38A29.012,29.012,0,0,0,35.385,34a26.808,26.808,0,0,0,3.287-.224L38.847,35H37a3,3,0,0,0,0,6h4.586l.414.414A6.937,6.937,0,0,0,41,45a11,11,0,0,0,22,0V38.873A29.907,29.907,0,0,0,33.127,9ZM11,15a2,2,0,1,1-2,2A2,2,0,0,1,11,15ZM61,45a9,9,0,0,1-18,0,5,5,0,0,1,10,0,3,3,0,0,1-6,0,1,1,0,0,1,2,0h2a3,3,0,0,0-6,0,5,5,0,0,0,10,0,6.984,6.984,0,0,0-2.5-5.356,19.6,19.6,0,0,0-2.434-5.953A6.936,6.936,0,0,0,51.6,32.2l1.2-1.6-1.6-1.2L50,31a5.025,5.025,0,0,1-4,2,1,1,0,0,0-1,1v.475a8.622,8.622,0,0,0,.916,3.842,7,7,0,0,0-2.647,1.539l-.562-.563A1,1,0,0,0,42,39H37a1,1,0,0,1,0-2h3a1,1,0,0,0,.99-1.142l-.971-6.8A1.852,1.852,0,0,1,40,28.8a1.809,1.809,0,0,1,2.056-1.783l6.8.972.284-1.98-6.8-.971A3.748,3.748,0,0,0,41.8,25,3.805,3.805,0,0,0,38,28.8a3.893,3.893,0,0,0,.038.538l.353,2.471a26.248,26.248,0,0,1-8.469-.373,4.252,4.252,0,0,0-1.634-4.221A5.746,5.746,0,0,1,26,22.641V22H24v.641a7.753,7.753,0,0,0,3.088,6.174A2.294,2.294,0,0,1,28,30.641a2.266,2.266,0,0,1-.668,1.613l-2.039,2.039a1,1,0,0,0-.188,1.154l1.488,2.975A3.881,3.881,0,0,1,27,40.146a.854.854,0,0,1-1.618.382L23.9,37.553A1,1,0,0,0,23,37H17a1,1,0,0,1,0-2,10.873,10.873,0,0,0,6.051-1.832l.5-.336a1,1,0,0,0,0-1.664l-.5-.336A4.6,4.6,0,0,1,21,27H19a6.6,6.6,0,0,0,.563,2.667A33.505,33.505,0,0,1,4.5,23.584a3.634,3.634,0,0,1-1.181-1.5,26.829,26.829,0,0,1,8.306,1.847l.742-1.858a28.811,28.811,0,0,0-9.321-2.03A3.663,3.663,0,0,1,3.8,18.35l.481-.6a7.285,7.285,0,0,1,3.007-2.22A3.96,3.96,0,0,0,7,17a4,4,0,1,0,5.208-3.793l2.438-2.439a2.714,2.714,0,0,1,3.708,0A5.585,5.585,0,0,1,20,14.743v1.495a3.449,3.449,0,0,1-1.918,3.1l-1.529.764A1,1,0,0,0,16,21a3,3,0,0,1-3,3v2a5.007,5.007,0,0,0,4.959-4.362l1.018-.508A5.44,5.44,0,0,0,22,16.238V14.743a7.667,7.667,0,0,0-.127-1.368A27.869,27.869,0,0,1,61,38.873ZM48.283,34.611a17.577,17.577,0,0,1,1.763,3.7,6.989,6.989,0,0,0-2-.3,6.612,6.612,0,0,1-1.031-3.077A7.006,7.006,0,0,0,48.283,34.611Z"/></g></svg>