<svg xmlns="http://www.w3.org/2000/svg" viewBox="0 0 64 64"><g id="Layer_22" data-name="Layer 22"><circle cx="50" cy="20" r="2"/><path d="M54.566,15.19a17.089,17.089,0,0,0-6.634-6.221c-.3-.787-.974-2.6-.974-2.6a9.959,9.959,0,0,0-3.824-4.817A3.3,3.3,0,0,0,38,4.3a10.966,10.966,0,0,0,.362,2.777,17.15,17.15,0,0,0-9.539,4.04L26.627,13A24.027,24.027,0,0,0,3,37v4.226A49.361,49.361,0,0,0,4.9,54.787a2.621,2.621,0,0,1,.1.718,2.6,2.6,0,0,1-.764,1.845A4.193,4.193,0,0,0,3,60.334,2.669,2.669,0,0,0,5.666,63a2.713,2.713,0,0,0,1.013-.2L11,61.075A28.816,28.816,0,0,0,21.385,63H43a1,1,0,0,0,1-1V61h6a1,1,0,0,0,1-1V59a4,4,0,0,0-4-4H45.388l.849-2.547A14.773,14.773,0,0,0,46.512,44a15.363,15.363,0,0,0,.8-1.923A13.808,13.808,0,0,0,52.256,43a2.744,2.744,0,0,0,.869-5.346A8.768,8.768,0,0,1,47.942,33h7.375a5.684,5.684,0,0,0,4.85-8.646ZM27,15a1,1,0,0,0,.651-.241l2.474-2.12a15.112,15.112,0,0,1,1.521-1.129l.126,1.263a6.34,6.34,0,0,0,2.5,4.43A4.346,4.346,0,0,1,36,20.662V24.5a3.5,3.5,0,0,1-6.475,1.857A34.914,34.914,0,0,0,19.89,16.2l-.016-.011A21.9,21.9,0,0,1,27,15ZM5,37A21.863,21.863,0,0,1,8.052,25.84a6.6,6.6,0,0,0,4.566,4.095,4.466,4.466,0,0,1,1.6,7.905A5.56,5.56,0,0,0,12,42.268a8.62,8.62,0,0,1-3.35,6.848l-2.6,2.023A47.354,47.354,0,0,1,5,41.226ZM18.376,60.826l.706-4.237a6.416,6.416,0,0,1,5.5-5.279,5.777,5.777,0,0,0,4.459-3.155A2.09,2.09,0,0,1,33,49.09v5.032a2.518,2.518,0,0,1-2.018,2.462,4.528,4.528,0,0,0-3.491,3.327L27.218,61H21.385A27.121,27.121,0,0,1,18.376,60.826ZM45,47.748a12.826,12.826,0,0,1-.661,4.072l-1.288,3.864A1,1,0,0,0,44,57h3a2,2,0,0,1,2,2H43.444A3.987,3.987,0,0,0,40,57h-.234l.127-.212a14.769,14.769,0,0,0,2.1-7.35,15.224,15.224,0,0,0,2.944-2.909C44.973,46.934,45,47.34,45,47.748ZM55.317,31H47.244l-1.286-4.287-1.916.574,1.544,5.146a10.776,10.776,0,0,0,6.906,7.118A.744.744,0,0,1,52.256,41a11.714,11.714,0,0,1-9.308-4.553L39.79,32.386l-1.58,1.228,3.159,4.062a13.774,13.774,0,0,0,4.118,3.534,13.26,13.26,0,0,1-3.657,5.766A14.773,14.773,0,0,0,34.3,36.2l-3.817-2.082-.958,1.756,3.817,2.082a12.782,12.782,0,0,1,4.84,17.8l-1.035,1.726A1,1,0,0,0,38,59h2a2,2,0,0,1,2,2H29.28l.151-.6a2.521,2.521,0,0,1,1.943-1.852A4.522,4.522,0,0,0,35,54.122V49.09a4.09,4.09,0,0,0-7.749-1.829,3.777,3.777,0,0,1-2.918,2.064,8.432,8.432,0,0,0-7.224,6.936L16.4,60.534a26.819,26.819,0,0,1-5.025-1.463,1,1,0,0,0-.743,0L5.935,60.948A.693.693,0,0,1,5,60.334a2.205,2.205,0,0,1,.651-1.57A4.583,4.583,0,0,0,7,55.505a4.656,4.656,0,0,0-.177-1.266c-.092-.321-.174-.644-.259-.967l3.314-2.578A10.6,10.6,0,0,0,14,42.268a3.556,3.556,0,0,1,1.414-2.829A6.465,6.465,0,0,0,13.1,28a4.6,4.6,0,0,1-3.467-4.049L9.6,23.56a22.124,22.124,0,0,1,8.063-6.475l1.079.756a32.916,32.916,0,0,1,9.086,9.571A5.5,5.5,0,0,0,38,24.5V20.662A6.353,6.353,0,0,0,35.471,15.6a4.333,4.333,0,0,1-1.708-3.03l-.214-2.138a15.121,15.121,0,0,1,5.549-1.4,11.057,11.057,0,0,0,4.271,4.748l.115.069,1.032-1.712-.117-.071A9.107,9.107,0,0,1,40,4.3a1.3,1.3,0,0,1,2.025-1.085,7.952,7.952,0,0,1,3.059,3.855c1.163,3.1,1.327,3.536,1.789,3.6a15.084,15.084,0,0,1,5.986,5.56l5.6,9.164A3.682,3.682,0,0,1,55.317,31Z"/></g></svg>