<?xml version="1.0" standalone="no"?>
<!DOCTYPE svg PUBLIC "-//W3C//DTD SVG 20010904//EN"
 "http://www.w3.org/TR/2001/REC-SVG-20010904/DTD/svg10.dtd">
<svg version="1.0" xmlns="http://www.w3.org/2000/svg"
 width="700.000000pt" height="700.000000pt" viewBox="0 0 700.000000 700.000000"
 preserveAspectRatio="xMidYMid meet">
<metadata>
Created by potrace 1.14, written by Peter Selinger 2001-2017
</metadata>
<g transform="translate(0.000000,700.000000) scale(0.100000,-0.100000)"
fill="#000000" stroke="none">
<path d="M1629 6746 c-2 -2 -26 -6 -54 -9 -296 -35 -664 -226 -909 -473 -91
-91 -137 -142 -188 -209 -251 -330 -398 -720 -435 -1155 -12 -138 -6 -429 11
-515 2 -11 6 -41 10 -66 26 -181 84 -393 163 -604 52 -137 180 -408 242 -508
22 -37 41 -70 41 -73 0 -18 268 -409 357 -523 27 -33 59 -74 73 -92 14 -18 30
-37 35 -43 6 -6 44 -51 85 -101 41 -49 77 -92 80 -95 3 -3 25 -27 49 -55 183
-208 529 -556 806 -810 54 -49 103 -95 109 -101 31 -30 393 -329 466 -384 47
-35 91 -70 98 -77 14 -14 195 -133 230 -152 19 -10 22 -20 22 -76 0 -159 103
-303 254 -355 88 -30 204 -24 281 15 l60 30 60 -30 c54 -27 69 -30 155 -30 85
0 102 3 160 31 136 64 221 200 217 347 l-2 54 78 48 c64 38 194 130 251 176 6
5 54 43 106 84 52 42 115 93 139 113 291 243 436 377 771 712 344 344 529 554
781 887 40 53 215 306 220 320 2 4 37 63 77 130 178 298 342 700 403 988 5 22
10 50 13 62 8 40 35 236 41 298 6 71 7 325 1 375 -2 19 -7 62 -10 95 -6 57 -9
80 -21 143 -3 15 -8 43 -11 62 -14 86 -58 234 -107 360 -234 608 -747 1069
-1318 1185 -220 45 -494 27 -749 -51 -376 -115 -789 -375 -1173 -741 -44 -41
-82 -73 -87 -71 -4 2 -56 49 -116 105 -300 281 -676 533 -959 643 -44 17 -89
35 -100 39 -30 13 -117 41 -140 45 -11 3 -63 14 -115 26 -71 16 -140 23 -271
26 -96 3 -177 3 -180 0z m256 -759 c17 -4 44 -9 62 -12 82 -14 281 -97 408
-170 131 -76 337 -225 460 -335 115 -101 374 -372 422 -440 17 -24 110 -84
153 -99 93 -32 214 -21 303 27 50 27 84 60 214 207 137 154 296 304 456 428
418 326 781 455 1060 378 144 -40 283 -123 406 -243 266 -261 405 -617 405
-1033 0 -165 -10 -244 -59 -460 -24 -107 -104 -321 -170 -453 -20 -41 -40 -84
-46 -95 -5 -12 -13 -29 -19 -37 -5 -8 -45 -76 -89 -150 -63 -108 -241 -368
-307 -449 -217 -267 -285 -344 -533 -603 -57 -59 -109 -108 -116 -108 -6 0
-30 9 -52 20 -177 85 -470 37 -612 -99 -49 -48 -71 -118 -75 -239 -3 -107 5
-126 84 -188 33 -26 60 -50 59 -53 -2 -16 -399 -329 -499 -393 -101 -65 -282
-178 -284 -178 -1 0 28 30 64 68 82 83 134 183 166 319 31 133 29 373 -5 533
-83 381 -282 727 -506 877 -149 99 -349 182 -575 238 -90 22 -155 34 -295 54
-66 10 -352 8 -400 -3 -233 -50 -362 -115 -447 -224 l-26 -32 -79 107 c-303
409 -480 759 -568 1118 -26 105 -29 123 -42 220 -15 116 -9 390 12 506 87 479
418 885 800 982 91 24 191 29 270 14z"/>
<path d="M2695 5023 c-238 -46 -495 -302 -555 -552 -24 -103 -14 -203 31 -292
46 -92 179 -197 274 -215 155 -31 308 57 430 246 199 309 198 674 -3 783 -49
26 -126 40 -177 30z"/>
<path d="M3959 4794 c-208 -38 -455 -260 -589 -529 -84 -169 -107 -317 -65
-423 32 -79 148 -160 305 -211 102 -34 129 -35 190 -11 185 72 330 181 439
330 183 250 199 536 41 725 -90 106 -189 143 -321 119z"/>
<path d="M4875 3942 c-131 -14 -364 -134 -563 -291 -208 -164 -276 -287 -267
-484 6 -149 90 -253 226 -284 42 -9 222 -9 269 0 19 4 45 9 58 11 157 32 362
130 449 215 196 188 266 351 226 525 -46 201 -210 328 -398 308z"/>
</g>
</svg>
