<svg id="Layer_1" data-name="Layer 1" xmlns="http://www.w3.org/2000/svg" viewBox="0 0 512 512"><path d="M489.257,402.005l-15.31,2.469c.161-1.271.3-2.548.386-3.834,4.121-59.426-9.829-105.495-41.46-136.927-47.271-46.97-115.025-43.3-122.594-42.725-45.725,3.464-70.291,13.268-79.371,17.729-7.218-6.737-17.08-12.129-27.868-15.225-9.762-2.8-19.293-3.438-25.5-1.708a.961.961,0,0,1-.8-.119.846.846,0,0,1-.395-.6c-1.489-9.7-5.826-23.4-18.024-33.595-3.907-3.264-5.927-6.681-6.005-10.154-.142-6.331,5.752-11.8,5.788-11.832a5.848,5.848,0,0,0,.556-.568c19.157-22.369,29.792-46.688,31.611-72.281a107.737,107.737,0,0,0-6.834-46.254A12.84,12.84,0,0,0,167,39.007a91.809,91.809,0,0,0-30.362,18.082C120.542,35.815,107.441,27.874,96.7,32.846c-17.051,7.889-15.906,46.1-7.626,78.265a230.731,230.731,0,0,0,9.182,27.381,111.918,111.918,0,0,1,4.534,13.011,11.73,11.73,0,0,1-9.834,14.381c-4,.535-8.787,1.109-14.642,1.751-23.5,2.58-35.345,20.974-40.315,31.709a37.452,37.452,0,0,1-6.247,9.381c-3.239,3.58-6.857,9.451-12.335,18.34-1.7,2.763-3.593,5.83-5.709,9.215-8.438,13.5-10.747,24.55-6.863,32.856,3.026,6.47,9.851,10.883,18.724,12.107a.726.726,0,0,1,.363.152c4.4,3.629,20.593,14.81,44.372,6.327,3.6-1.283,6.261-1.377,7.917-.279,5.014,3.329,5.834,17.952,6.377,27.628.258,4.6.5,8.952,1.057,12.649,6.169,41.086,41.411,64.063,80.811,85.377-.646,8.062-2.258,16.245-5.658,22.676a14.785,14.785,0,0,1-10.218,7.6c-13.452,2.54-22.7,7.587-27.484,15a19.557,19.557,0,0,0-3.028,14.541,6,6,0,0,0,5.831,4.586H164.73a19.887,19.887,0,0,0,15-6.816c6.841-7.848,20.137-23.155,34.84-40.373,6.846,2.284,21.7,6.1,44.593,6.1q3.123,0,6.452-.1c20.968-.636,34.987-5.582,43.131-9.683,1.964,5.187,3.9,9.632,5.534,13.113l-49.591,2.285c-6.492-.342-22.414.357-30.033,14.2-2.818,5.12-6.137,12.619-2.459,18.61,3.161,5.15,9.4,5.711,12.785,5.711l155.274-1.1a14.778,14.778,0,0,0,11.872-6.811,6.158,6.158,0,0,0,.494-.95l2.295-5.6a71.2,71.2,0,0,0,27.685,6.069,55.223,55.223,0,0,0,18-2.973c22.794-7.8,36.994-29.07,44.892-45.54a15.267,15.267,0,0,0-16.23-21.64ZM100.691,108.12c-9.107-35.377-5.53-61.342,1.044-64.383,2.886-1.335,11.587,2.032,26.455,22.09-9.364,11.108-16.319,24.765-20.608,40.71a138.159,138.159,0,0,0-3.042,14.384C103.207,117.006,101.886,112.759,100.691,108.12ZM406.678,454.8a6,6,0,0,0-.494.951l-4.407,10.744a2.774,2.774,0,0,1-1.926.96l-157.234.867a20.052,20.052,0,0,1,2.548-6.306c4.344-7.895,14.659-8.231,18.888-8.007l60.064-2.773A6,6,0,0,0,329,442.249c-.359-.623-35.538-62.855-9.639-110.423,8.513-15.636,20.823-25.574,36.589-29.541,19.065-4.794,38.982.5,50.262,7.881,18.278,11.955,22.389,22.94,22.514,23.288a6,6,0,0,0,11.424-3.673c-.477-1.515-5.3-15.221-27.369-29.658-12.484-8.166-35.626-15.547-59.759-9.475-18.878,4.75-34.162,17-44.2,35.439-12.111,22.244-14.224,50.486-6.111,81.673.664,2.55,1.369,5.019,2.1,7.4-6.506,3.574-19.1,8.534-39.564,9.155-20.086.6-34.166-1.925-42.16-4.014,6.872-8.1,13.838-16.379,20.417-24.309,13.705-16.518,15.584-38.082,5.436-62.361a125.73,125.73,0,0,0-18.849-30.895,6,6,0,0,0-9.052,7.878,114.555,114.555,0,0,1,16.829,27.645c8.435,20.179,7.224,37.025-3.6,50.071-23.657,28.514-52.35,61.577-63.588,74.468a7.889,7.889,0,0,1-5.95,2.7H132.775c2.13-3.752,7.756-8.018,20.037-10.336a26.533,26.533,0,0,0,18.6-13.78c12.094-22.879,5.821-60.616,5.548-62.211a6,6,0,0,0-11.829,2.021,149.965,149.965,0,0,1,1.634,18.4c-35.456-19.532-64.135-39.605-69.247-73.654-.473-3.146-.7-7.223-.944-11.54-.8-14.2-1.7-30.3-11.721-36.953-4.978-3.3-11.231-3.65-18.586-1.027-17.341,6.188-28.645-.931-32.7-4.28a12.728,12.728,0,0,0-6.36-2.784c-2.254-.311-7.692-1.45-9.494-5.3-1.992-4.26.2-11.863,6.167-21.41,2.132-3.41,4.036-6.5,5.751-9.282,4.945-8.024,8.518-13.822,11.017-16.585a49.411,49.411,0,0,0,8.239-12.39c3.907-8.439,13.094-22.885,30.736-24.821,5.95-.654,10.832-1.238,14.924-1.787a23.717,23.717,0,0,0,20.484-25.446c0-.03,0-.059,0-.088a132.2,132.2,0,0,1,4.144-42.589c8.008-29.766,25.481-49.741,51.933-59.371a.9.9,0,0,1,1.176.49c6.452,16.415,17.149,59.568-22.5,106.077-1.918,1.814-9.635,9.8-9.452,20.614.12,7.134,3.589,13.6,10.308,19.215,9.324,7.793,12.684,18.554,13.86,26.209a12.933,12.933,0,0,0,16.277,10.454c7.447-2.08,29.2,1.871,42.391,14.567a10.844,10.844,0,0,0,12.4,1.9c7.772-3.933,30.7-13.449,75.624-16.852,25.439-1.926,77.909,4.176,113.229,39.272,29.049,28.865,41.816,71.79,37.947,127.584A54.142,54.142,0,0,1,443.142,437.8c-10.123,8.349-19.758,9.967-24.6,10.188A14.869,14.869,0,0,0,406.678,454.8Zm87.989-36.34c-12.512,26.091-27.547,35.814-37.957,39.376-8.45,2.892-17.636,3.047-27.435.508a56.89,56.89,0,0,0,21.5-11.283,65.319,65.319,0,0,0,20.325-29.97l20.065-3.235a3.225,3.225,0,0,1,3.17,1.284A3.149,3.149,0,0,1,494.667,418.456Z"/></svg>