<?xml version="1.0" encoding="utf-8"?>
<!-- Generator: Adobe Illustrator 26.0.3, SVG Export Plug-In . SVG Version: 6.00 Build 0)  -->
<svg version="1.1" id="outline" xmlns="http://www.w3.org/2000/svg" xmlns:xlink="http://www.w3.org/1999/xlink" x="0px" y="0px"
	 viewBox="0 0 512 512" enable-background="new 0 0 512 512" xml:space="preserve">
<circle cx="129.005" cy="112" r="8"/>
<path d="M486.7,291.096c0.839-2.206,1.3-4.599,1.3-7.096c0-11.028-8.972-20-20-20h-32.819L261.302,161.836l-71.028-87.598
	C177.576,53.71,154.865,40,129.005,40c-39.588,0-71.808,32.117-71.991,71.662L27.884,129.14c-2.729,1.638-4.228,4.736-3.817,7.893
	s2.653,5.769,5.71,6.652l42.216,12.214c3.692,4.784,7.972,9.088,12.731,12.812C76.951,186.128,73.005,204.702,73.005,224
	c0,69.577,52.522,127.109,120,135.054V432H176c-2.122,0-4.157,0.843-5.657,2.343l-16,16c-3.125,3.125-3.125,8.189,0,11.314
	c1.562,1.562,3.609,2.343,5.657,2.343s4.095-0.781,5.657-2.343L179.313,448h9.373l-2.343,2.343c-3.125,3.125-3.125,8.189,0,11.314
	c1.562,1.562,3.609,2.343,5.657,2.343s4.095-0.781,5.657-2.343L211.314,448H216h28.686l5.657,5.657
	c3.124,3.123,8.189,3.123,11.313,0c3.125-3.125,3.125-8.189,0-11.314l-8-8c-1.5-1.5-3.535-2.343-5.657-2.343h-6.995v-76.294
	c18.944-5.128,37.159-14.797,53.813-28.68l181.112,0.914c0.035,0,0.068,0,0.103,0c5.314,0,10.313-2.062,14.083-5.813
	c3.794-3.775,5.884-8.803,5.884-14.156C496,300.879,492.285,294.64,486.7,291.096z M472,284c0,2.206-1.794,4-4,4H269.252l-7.707-8
	H468C470.206,280,472,281.794,472,284z M242.729,264c-32.556,0-61.824-18.089-76.383-47.208l-17.76-35.52
	c29.951-8.479,52.018-35.882,52.398-68.423L245.701,168H200c-4.418,0-8,3.582-8,8s3.582,8,8,8h66c0.428,0,0.846-0.043,1.256-0.108
	L294.671,200H232c-4.418,0-8,3.582-8,8s3.582,8,8,8h89c0.28,0,0.557-0.015,0.829-0.043L349.134,232H264c-4.418,0-8,3.582-8,8
	s3.582,8,8,8h112c0.114,0,0.224-0.012,0.337-0.017L403.597,264H242.729z M73.005,112c0-5.559,0.826-10.927,2.341-16H128
	c8.822,0,16,7.178,16,16s-7.178,16-16,16c-12.919,0-24.533,7.178-30.311,18.732l-4.247,8.494
	C80.97,144.947,73.005,129.387,73.005,112z M98.48,177.189c9.274,4.36,19.617,6.811,30.525,6.811c1.012,0,2.016-0.035,3.017-0.077
	l8.178,16.356c-12.272,5.687-26.536,8.421-40.65,7.73c-0.131-0.007-9.49-0.01-9.49-0.01
	C91.464,197.382,94.277,187.077,98.48,177.189z M129.005,56c14.605,0,27.917,5.625,37.897,14.816l10.274,12.671
	c4.966,8.358,7.829,18.105,7.829,28.513c0,30.879-25.122,56-56,56c-7.745,0-15.127-1.582-21.842-4.437l4.837-9.674
	c3.05-6.1,9.181-9.889,16-9.889c17.645,0,32-14.355,32-32s-14.355-32-32-32H83.088C93.22,65.506,110.018,56,129.005,56z
	 M51.855,133.416l7.215-4.329c0.584,2.39,1.284,4.734,2.1,7.024L51.855,133.416z M89.005,224c0,0,13.218,0.115,14.851,0.115
	c15.154,0,30.286-3.318,43.504-9.52l4.676,9.352c16.769,33.54,49.974,54.753,87.234,55.993l38.598,40.064
	C256.585,335.731,232.954,344,209.005,344C142.836,344,89.005,290.168,89.005,224z M225.005,432H216h-6.995v-72
	c5.359,0,10.698-0.365,16-1.072V432z M478.831,310.784c-0.437,0.435-1.408,1.207-2.82,1.155l-184.592-0.931L284.666,304H476.03
	c2.189,0,3.97,1.781,3.97,3.97C480,309.405,479.267,310.35,478.831,310.784z"/>
<path d="M128,256h-8v-8c0-4.418-3.582-8-8-8s-8,3.582-8,8v16c0,4.418,3.582,8,8,8h16c4.418,0,8-3.582,8-8S132.418,256,128,256z"/>
<path d="M176,280c0-4.418-3.582-8-8-8h-8v-8c0-4.418-3.582-8-8-8s-8,3.582-8,8v16c0,4.418,3.582,8,8,8h16
	C172.418,288,176,284.418,176,280z"/>
<path d="M192,312h-8v-8c0-4.418-3.582-8-8-8s-8,3.582-8,8v16c0,4.418,3.582,8,8,8h16c4.418,0,8-3.582,8-8S196.418,312,192,312z"/>
<path d="M224,328h16c4.418,0,8-3.582,8-8s-3.582-8-8-8h-8v-8c0-4.418-3.582-8-8-8s-8,3.582-8,8v16C216,324.418,219.582,328,224,328z
	"/>
</svg>
