<?xml version="1.0" encoding="utf-8"?>
<!-- Generator: Adobe Illustrator 16.0.0, SVG Export Plug-In . SVG Version: 6.00 Build 0)  -->
<!DOCTYPE svg PUBLIC "-//W3C//DTD SVG 1.1//EN" "http://www.w3.org/Graphics/SVG/1.1/DTD/svg11.dtd">
<svg version="1.1" id="Calque_1" xmlns="http://www.w3.org/2000/svg" xmlns:xlink="http://www.w3.org/1999/xlink" x="0px" y="0px"
	 width="1500px" height="200px" viewBox="0 0 1500 200" enable-background="new 0 0 1500 200" xml:space="preserve">
<path d="M282.876,152.484c-1.806-2.687-13.634,4.131-21.046,6.771c-3.751-11.054-10.884-16.363-10.884-16.363s0,0,0.67-1.116
	c-0.67-0.895-4.244-1.564-4.244-1.564s0,0-0.226-1.787c-1.115-1.117-7.528,0.914-7.528,0.914s1.855-1.076,3.732-4.488
	c-2.234-1.117-11.448,3.231-11.448,3.231s1.915-1.674,3.181-4.797c-2.681-1.786-11.188,4.108-11.188,4.108s1.135-1.651,2.922-4.777
	c-2.457-1.565-10.177,4.655-10.177,4.655s0.348-1.529,1.688-4.21c-2.234-0.894-12.287,4.693-15.484,9.854l0.004,0.002
	c-19.754,6.834-37.729,28.299-38.98,29.86c-2.173,2.705,9.011,2.122,5.29,2.348c-12.735,0.786,4.469,11.392,24.647,15.508
	c3.82,0.778,7.293,1.339,10.514,1.719c3.984,4.048,14.601,14.251,19.243,13.83c3.477-1.637,3.783-9.188,2.06-13.999
	c4.276-0.606,8.479-1.505,13.052-2.547c9.162,0.726,24.542,0.598,23.782-5.493c-0.564-4.519-1.366-9.65-2.76-12.204
	c5.524,2.121,21.192,12.73,19.399,7.22C276.308,170.599,290.242,163.434,282.876,152.484z"/>
<g>
	<g>
		<path d="M132.445,183.092c-6.339-11.011,3.297-7.238-3.236-56.87c-1.026-7.797-10.911-32.899-13.588-39.28
			c-2.627-6.261-7.025-13.766-13.958-10.935c-6.466,2.639-3.991,10.183-3.34,13.664c5.963,31.891,8.495,27.702,8.698,36.244
			c-1.366-6.054-5.717-1.181-15.5-20.201c-3.727-7.247-7.823-8.249-11.826,3.841c-0.386,1.167-0.781,1.191-1.708,0.896
			c-3.707-1.181-7.313,1.994-10.381,3.231c-3.916,1.577-12.188,1.193-16.401,9.864l0.443-0.197
			c-3.042,1.84-14.346-8.746-17.221-2.021c-2.433,5.691,4.024,14.666,5.287,21.074c1.051,5.331-0.327,11.27,2.533,16.088
			c-4.691,3.837-4.374,4.352-4.837,7.213l6.321-5.304c0.632,0.642,1.337,1.201,2.091,1.703c-0.404,0.753-0.645,1.403-0.949,2.316
			l1.479-1.978c1.337,0.828,2.795,1.521,4.242,2.237l-9.685,13.19c6.384-4.211,13.096-7.425,11.146-12.446
			c10.989,5.816,12.844,18.82,4.047,27.764c-8.052,8.188-10.664,20.114-15.894,30.337c-7.799,15.245-4.184,10.792-6.485,19.028
			c-1.228,4.393-4.071,8.135-5.958,12.288c-4.775-11.645-16.2-17.522-26.533-16.111c-8.255,1.129-10.253,8.742-2.013,9.981
			c29.427,4.423-17.067,34.618-0.752,53.129c4.201,17.959,75.408,26.317,94.614,21.36c2.543,1.129,5.274,1.082,8.085,1.022
			c19.01-0.396,11.902-5.696,12.32-10.831c0.147-1.8,5.765-7.132,1.606-14.262c-1.587-2.723-5.526-4.54-4.861-7.621
			c1.115-5.155,7.48-15.931,6.289-42.729c-0.394-8.867,17.208-27.164,18.707-54.054
			C135.598,188.005,134.324,186.354,132.445,183.092z M22.386,281.207c3.576-2.154,5.208-4.321,6.193-6.69
			c0.083,0.096,0.159,0.198,0.245,0.289C28.587,279.558,26.972,282.4,22.386,281.207z"/>
		<path d="M37.407,165.703l-11.461,9.619C29.624,173.434,36.749,169.758,37.407,165.703z"/>
		<path d="M44.87,164.419l-7.272,9.72C42.438,171.639,43.759,167.741,44.87,164.419z"/>
	</g>
</g>
<path d="M1377.102,62.345c1.426-1.44,4.344,0.553,6.114,0.762c0.003,0.013,0.006,0.026,0.009,0.039
	c11.76,1.633,12.07-3.03,16.203-2.354c12.56,2.049,16.316,8.553,20.303,8.478c4.516-0.083,7.178-3.44,11.869-4.948
	c3.15-1.013,11.543-2.777,11.58-2.771c0.326,0.661-4.477,2.188-4.914,2.745c-0.029,0.037-8.315,19.378-7.659,28.852
	c0.372,5.402,3.78,9.877,1.063,15.194c-2.505,4.901,1.292,11.581,1.369,12.058c0.038,0.008,0.076,0.016,0.115,0.024
	c0.864,1.258-0.072,11.444,2.612,14.832c2.844,3.59,55.606,8.62,55.606,101.716c0,23.214-14.18,22.117,30.216,21.232
	c7.213-0.145,29.699-5.843,34.221-4.668c5.795,1.505,4.876,3.444,10.591,3.39c8.814-0.085,15.379,10.991,0.627,12.154
	c-33.532,2.642-64.764,6.95-64.802,6.955c-4.22,0.506-6.311-0.438-8.062-0.065c-0.039,0.008-4.982,7.604-61.109,5.26
	c-24.353-1.018-11.186-1.527-20.359,3.964c-2.714,1.624-4.703,0.991-4.988,1.115c-0.266,0.115,0.258,0.598-2.25,1.148
	c-2.161,0.474-4.868-0.948-4.906-0.961c-1.961-0.655-1.485-2.84-1.485-2.84c-3.288,1.23-3.537-0.485-4.153-1.205
	c-1.693-1.981,1.365-3.35-3.899-1.674c-10.3,3.277-9.037-7.503-7.038-9.867c1.976-2.336,6.022-4.317,7.634-2.254
	c0.489-1.273-4.263-51.226-17.309-76.869c-3.556-6.985-6.633-11.345-6.572-14.416c0.313-15.944-14.029-29.308,3.45-55.626
	c18.117-27.278,3.551-28.496,4.039-31.562c-5.524-11.859-3.781-7.91-2.269-17.24c0.438-2.705,1.157-7.995,3.117-10.138
	C1376.47,62.361,1376.458,62.33,1377.102,62.345z"/>
<path d="M877.749,148.113c-28.188,2.977-38.073,21.952-40.885,33.252c15.31,11.4,41.072,18.306,41.072,18.306
	s1.083,14.144,6.778,15.954c5.125,8.736,18.662,14.308,24.641,18.557c7.194-6.593-0.823-16.643-10.206-21.868
	c9.735,3.539,17.129,8.173,17.129,8.173s6.374-16.098-13.006-22.368c7.488-1.686,10.736-2.062,10.736-2.062
	s3.927,10.249,10.581,10.853c8.424,6.435,12.434,7.893,17.183,6.247c13.912,1.688,26.295-2.76,22.452-7.529
	c-3.843-4.769-16.684-16.184-23.609-16.756c9.746-1.123,11.819-9.318,16.871-3.591c5.05,5.728,34.915,29.167,42.424,18.15
	c7.509-11.018-3.427-20.181,1.105-30.856c4.529-10.673-0.063-29.074-4.78-27.157c-4.718,1.917-30.494,24.036-37.583,23.814
	c-3.482-0.108-7.999-5.112-7.999-5.112c8.895-3.771,22.1-20.108,22.1-20.108c1.519-3.467-14.763-5.47-30.856-8.236
	C925.512,132.958,892.046,112.719,877.749,148.113z"/>
<path d="M599.063,89.128c-3.847-3.743-11.124-2.651-15.283-5.942c-0.634-1.917-1.739-3.947-1.692-5.942
	c-0.215-1.62-3.048-1.589-0.79-3.842c-0.678-0.173-0.171-2.018-1.138-1.69c0.222-0.727-1.47-0.917-1.265-1.628
	c0.063-0.237,0.332-0.411,0.301-0.648c-0.411-0.063-0.854-0.016-1.249,0.126c0.316-0.126,0.648-0.222,0.995-0.269
	c-0.821-2.608-3.334-4.583-6.052-4.742c0.489-0.284,1.042-0.458,1.612-0.505c-5.389-1.464-4.033,3.579-5.089,6.811
	c-0.477,0.691-3.464-0.875-3.335-0.063c-3.603-0.395-7.113,1.186-10.384,2.719c0.079-0.016,0.174-0.016,0.253,0.032
	c-3.572,1.123-7.191,2.212-10.921,2.592c-0.944,0.057-7.732,1.405-6.59,2.734c-5.158,1.845-7.104,6.203-9.151,10.574
	c-1.708,1.35-0.658,4.282-0.285,6.117c0.048,0.158,0.206,0.348,0.332,0.236c0.049,1.571-0.108,3.957-0.474,5.469
	c0.648-0.474,1.344-0.886,2.086-1.218c-1.928,1.63-2.987,4.585-1.739,6.703c0.688-1.599,1.593-3.346,3.382-3.777
	c-6.061,9.724-10.502,7.299-19.045,11.506c0.505-0.016,1.027-0.031,1.549-0.048c-2.797,0.679-5.468,1.85-7.855,3.445
	c0.569-0.268,1.249-0.3,1.817-0.048c-2.262,0.179-4.369,1.115-6.37,2.119c-1.604,0.165-3.254,0.062-4.836,0.537
	c0.285,0.048,0.569,0.095,0.854,0.157c-4.875-0.003-9.675,1.203-14.525,1.724l0.331-0.443c-3.272-0.152-6.772,0.374-9.957,0.996
	c-3.667,0.054-7.399-0.231-11.017,0.554c-3.604,0.458-7.191-0.854-10.811-0.838c0.221,0.095,0.427,0.284,0.521,0.506
	c-4.568-0.759-9.246-0.838-13.846-0.222c0.522,0.048,1.044,0.254,1.455,0.569c-2.339-0.175-4.568,0.08-6.891,0.38
	c-1.964-0.051-3.961-0.343-5.927,0.109c0.427,0.112,0.822,0.349,1.123,0.681c-6.162-0.569-12.29,1.64-17.923,3.935
	c-1.825,1.327-4.264,1-6.148,2.276c0.221-0.031,0.443-0.047,0.664-0.079c-2.928,0.146-5.43,1.746-7.982,2.988
	c-2.659,0.9-5.027,2.549-7.128,4.33c0.505-0.206,1.027-0.349,1.581-0.427c-4.452,2.895-9.523,5.378-12.296,10.147
	c0.569-0.475,1.264-0.791,2.007-0.87c-4.429,2.153-6.734,6.819-9.878,10.321c0.348-0.143,0.743-0.189,1.122-0.159
	c-0.933,0-1.644,0.949-2.04,1.835c-0.541,1.564-1.655,2.874-3.397,2.37c-1.787-0.236-3.604-0.205-5.39,0.079
	c0.158,0.095,0.332,0.189,0.489,0.284c-1.328-0.142-2.655-0.063-3.951,0.237c0.348,0.032,0.711,0.064,1.059,0.095
	c-3.277-0.219-6.896,2.475-9.941,0.411c-1.354-3.335-3.413-2.309-1.945-7.429c-0.158,0.175-0.237,0.442-0.205,0.68
	c-0.126-1.391-0.364-2.766-0.696-4.125c0.111,0.205,0.222,0.427,0.332,0.632c-0.601-1.802-2.022-3.335-3.793-4.062
	c-1.455-1.691-3.588-2.687-5.643-3.619c-2.487-1.266-5.34-2.385-8.282-2.15c0.395,0.111,0.79,0.237,1.201,0.349
	c-2.482-0.156-5.029,0.247-7.255,1.39c-0.838-0.063-1.723,0.175-2.718,0.807c-3.086,0.726-5.597,2.926-7.286,5.484
	c0.442-0.252,0.869-0.505,1.312-0.742c-0.742,0.663-1.328,1.518-1.66,2.465c0.332-0.268,0.665-0.521,1.027-0.742
	c-2.576,3.398-4.41,7.27-5.342,11.316c0.98-1.344,2.103-2.608,3.352-3.777c-1.787,4.458-2.15,9.389-1.06,14.02
	c0.301-2.103,0.807-4.188,1.518-6.212c-0.095,5.011,1.265,10.053,3.904,14.431c-0.189-1.691-0.379-3.398-0.585-5.089
	c2.166,3.683,3.778,7.617,4.821,11.695c0.6-1.059,0.742-2.339,0.396-3.492c2.434,2.291,3.919,5.404,4.094,8.613
	c0.806-1.406,1.027-3.066,0.616-4.6c2.103,2.324,3.493,5.185,3.968,8.172c0.6-1.217,0.806-2.592,0.584-3.921
	c4.236,2.767,7.602,6.671,9.562,11.112c0.285-2.07-0.095-4.204-1.059-6.086c3.082,2.561,5.785,5.501,8.029,8.709
	c-0.269-1.216-0.553-2.449-0.837-3.682c2.166,2.007,4.047,4.267,5.611,6.7c0.189-0.964,0.016-1.975-0.49-2.829
	c2.86,2.135,5.706,4.284,8.566,6.418c0.87-1.202,1.549-2.546,2.007-3.936c1.028,0.759,1.833,1.786,2.308,2.923
	c-0.063-0.537-0.127-1.091-0.174-1.643c1.96,1.232,3.714,2.733,5.185,4.456c0.348-0.854,0.348-1.817,0.031-2.671
	c3.13-0.173,6.307,0.411,9.136,1.645c-0.38-0.585-1.012-1.011-1.74-1.186c1.691-0.063,3.398,0.711,4.363,1.975
	c0.332-0.869,0.252-1.864-0.206-2.671c0.948,0.491,1.723,1.28,2.181,2.196c1.169-2.354,2.734-4.535,4.615-6.447
	c-0.173,1.043-0.348,2.102-0.538,3.146c1.628-0.601,3.177-1.328,4.663-2.182c-0.016,0.284-0.032,0.568-0.063,0.854
	c1.154-0.807,2.354-1.549,3.588-2.228c-3.305,2.592-6.667,5.602-8.599,9.371c-0.372,1.829,1.052,3.719,0.728,5.502
	c-0.506,2.434-0.443,4.978,0.189,7.38c0.237-0.205,0.474-0.411,0.727-0.615c-0.411,2.007-0.174,4.14,0.664,6.005
	c0.316-0.253,0.553-0.632,0.648-1.027c-0.174,1.565,0.079,3.193,0.758,4.615c0.19-0.079,0.443-0.158,0.632-0.222
	c0.834,2.965-0.203,9.465,3.351,10.479c0.047-0.206,0.079-0.427,0.126-0.633c1.843,3.751,8.81,5.448,11.759,2.198
	c0.506-0.285,1.123-0.048,1.66,0.125c0.925,0.316,5.1,1.039,4.473-0.742c2.646,2.441,0.967-3.183-0.332-3.761
	c-5.35-3.355-7.329-2.447-9.325-9.658c-0.834-1.626,0.718-2.969,2.339-2.134c2.797,1.327,2.908,5.626,5.547,7.271
	c4.418,2.041,10.094-0.827,14.241,2.34c0.625-1.879,4.075,1.046,4.173-1.36c0.49-0.205,1.138,0.111,1.264,0.648
	c0.024-10.576-7.595-4.047-11.965-9.246c-7.848-7.109-6.158-19.022,4.189-22.539c-0.379,1.218-0.743,2.451-1.076,3.699
	c1.846-0.786,2.769-2.772,3.241-4.615c0.015-0.016,0.031-0.016,0.047-0.031c-0.237,1.502-0.664,2.971-1.249,4.379
	c1.703-0.434,2.983-3.089,3.556-4.695c-0.221,0.854-0.442,1.723-0.664,2.576c1.396-1.201,2.138-3.161,3.004-4.772
	c1.042-0.904,1.637-2.169,2.054-3.478c0.791-0.886,1.565-1.771,2.308-2.687c-0.268,0.963-0.553,1.943-0.837,2.908
	c1.897-1.739,3.351-3.952,4.189-6.386c0.047,0.899,0.079,1.801,0.126,2.702c1.043-1.896,1.264-4.235,0.6-6.291
	c0.616,0.032,1.217,0.064,1.833,0.111c-0.348-0.695-0.917-1.28-1.597-1.644c2.07-1.438,4.158-2.876,6.244-4.314
	c-1.803,0.142-3.572,0.426-5.327,0.806c2.513-1.534,5.279-2.623,8.156-3.225c-0.791-0.3-1.675-0.395-2.513-0.27
	c2.292-0.33,4.773-0.805,6.985-1.453c-0.11-0.063-0.221-0.11-0.331-0.157c1.407,0.173,2.797,0.537,4.109,1.059
	c-0.237-0.316-0.458-0.633-0.695-0.949c2.971,0.901,5.911,1.851,8.851,2.846c-0.142-0.411-0.285-0.806-0.442-1.202
	c3.224,2.546,6.97,4.426,10.921,5.502c-0.317-0.38-0.617-0.776-0.933-1.154c1.992,1.137,4.204,1.454,6.48,1.533
	c2.261,1.676,4.821,3.065,7.303,4.394c-1.027-1.313-1.897-2.767-2.529-4.315c0.016-0.016,0.031-0.016,0.047,0h0.016
	c2.323,2.371,5.01,4.378,7.951,5.913c-1.312-1.756-2.718-3.447-4.22-5.043c0.712,0.759,3.335,1.106,4.347,1.485
	c0.489,0.173,1.58,0.807,2.465,1.106c0.158,0.3,0.269,0.632,0.348,0.964c0.142-0.269,0.269-0.522,0.411-0.79
	c0.206-0.004,0.409-0.061,0.521-0.206c1.249,2.055,2.498,4.126,3.73,6.195c0-0.505,0.08-1.011,0.222-1.485
	c0.869,1.471,1.533,3.066,1.959,4.711c2.455,1.593,4.519,4.935,5.5,7.223c0.3-0.411,0.49-0.869,0.553-1.374
	c2.296,2.341,3.421,5.559,4.299,8.66c0.49-0.695,0.79-1.518,0.822-2.371c2.798,3.592,5.086,7.57,6.638,11.854
	c-0.063-0.742-0.111-1.485-0.189-2.244c1.85,3.391,3.414,6.967,5.5,10.241c-0.063-0.885-0.127-1.786-0.19-2.686
	c0.363,1.358,1.043,2.639,1.991,3.682c0.048,0.237,0.111,0.458,0.174,0.68c0.063-0.095,0.11-0.189,0.19-0.3
	c0.205,0.205,0.426,0.41,0.663,0.6c-0.015-0.11-0.031-0.237-0.047-0.347c5.552,4.56,2.015,2.172,3.651,7.476
	c0.19-0.111,0.395-0.222,0.585-0.332c-0.364,0.964-0.237,2.103,0.316,2.955c0.095-0.174,0.206-0.348,0.3-0.521
	c-0.431,6.423,10.904,3.548,14.746,3.271c2.324-0.315,4.631-0.647,6.939-0.964c0.72-0.011,1.126-0.44,1.407-1.027
	c0.426-0.521,1.312-0.379,1.833-0.822c0.848-0.781,0.196-1.989-0.411-2.719c-2.253-3.868-7.185-2.272-10.605-3.808
	c-2.061-1.082-3.297-3.285-4.994-4.853c2.41-3.835-3.25-7.521-3.936-11.206c0.301,0.38,0.679,0.694,1.106,0.901
	c-0.49-3.352-1.328-6.67-2.45-9.88c0.522-2.473-0.453-6.804-2.054-8.851c0.348,0.175,0.68,0.348,1.012,0.522
	c-0.664-2.371-1.676-5.801-3.176-7.855c-0.121-2.791,6.27,0.625,7.475,1.28c-0.825-1.035,2.909-1.541,3.731-3.445
	c-0.048,0.347-0.08,0.694-0.111,1.042c1.644-0.475,1.627-3.034,3.066-3.967c-0.111,0.27-0.206,0.538-0.316,0.822
	c1.09-0.521,2.008-1.392,2.576-2.45c1.078,3.484-4.33,6.146-2.387,9.61c1.264,1.246,1.624,3.029,0.901,4.709
	c-1.285,2.523-2.328,5.109-3.619,7.618c-0.779,4.084,3.144,8.455,7.159,8.535c0.995,0.012,2.366-0.108,2.798,0.996
	c0.933-3.161,1.47-6.575,2.561-9.704c0.079,0.821,0.284,1.723,0.996,2.102c0.601-2.039,1.059-4.125,1.343-6.243
	c0.095,0.712,0.206,1.423,0.316,2.118c1.296-2.702,2.039-5.69,2.181-8.692c0,0.457,0.143,0.916,0.427,1.295
	c0.569-2.102,0.917-4.251,1.027-6.4c0,0.616,0.142,1.248,0.427,1.802c0.775-2.261,1.011-4.71,0.648-7.081
	c0.174,0.363,0.332,0.727,0.505,1.075c-0.003-3.848-1.337-7.807-3.587-10.922c-0.594-1.051-1.708-1.876-1.819-3.145
	c0.108-2.511,3.486-3.69,3.304-6.308c0.095,0.617,0.095,1.248,0,1.881c1.486-0.838,2.718-2.118,3.509-3.635
	c-0.079,0.396-0.157,0.79-0.237,1.17c1.73-1.993,3.647-4.574,3.541-7.303c0.111,0.316,0.206,0.616,0.3,0.917
	c0.791-3.129,1.138-6.528-0.095-9.515c0.174,0.174,0.364,0.332,0.538,0.505c0.016-1.738-0.348-3.382-0.87-5.025
	c0.126,0.08,0.348,0.095,0.459,0.143c-1.996-3.354,2.408-12.148,3.888-4.441c0.348-0.538,0.648-1.123,0.854-1.739
	c0,0.475,0.143,0.949,0.411,1.344c0.237-2.275,2.498-3.777,3.334-5.911c-0.047,0.316-0.016,0.647,0.063,0.947
	c1.224-1.614,2.854-3.22,3.367-5.215v0.49c1.406-1.423,2.513-3.146,3.193-5.043c-0.016,0.459-0.048,0.901-0.063,1.36
	c0.964-1.912,1.976-3.937,1.929-6.085c0.063,0.174,0.126,0.363,0.189,0.537c0.221-1.47,0.269-2.955,0.126-4.426
	c-0.614-0.24-2.036-1.165-0.664-1.484c0.189,0.409,0.379,0.837,0.569,1.247c0.395-2.877-0.158-5.896-1.565-8.439
	c0.253,0.395,0.506,0.79,0.759,1.201c0.063-2.182-0.158-4.361-0.68-6.465c0.719-0.286-0.86-2.421-1.201-2.892
	c2.671-1.755,6.307-1.28,9.12-2.813c3.145-1.939,6.947-7.52,6.986-11.27c-0.063-1.375-0.664-2.688-0.616-4.063
	C599.19,90.614,599.395,89.809,599.063,89.128z"/>
<path d="M1009.219,245.942c4.333-2.052,9.347-10.942,14.592-15.502c5.242-4.561,29.381-9.804,37.614-12.995
	c4.342-1.683,13.04-6.229,20.295-10.149c-2.934,3.476-7.542,7.963-12.315,8.782c0,0-4.734-0.685-6.356,2.735
	c-1.623,3.419-2.989,9.347-7.094,13.905c-4.104,4.561-8.396,10.031-7.732,12.083c0.666,2.052,2.944,3.42,7.049,0
	c4.104-3.419,9.436-15.046,12.538-16.413c3.104-1.368,2.964-4.332,5.472-4.787c2.507-0.457,20.746-1.825,27.813-8.208
	s9.574-14.44,13.222-14.629c2.937-0.153,6.604-0.479,7.333-1.67c5.006,0.014,10.691,2.848,16.377,2.393
	c5.699-0.455,5.699-2.052,12.994,0c7.295,2.051,11.398,5.471,21.429,4.56c10.032-0.912,20.441-3.114,23.86-2.201
	c3.42,0.911,1.824,3.42,7.067,5.698c4.382,1.906,21.013,5.562,28.493,7.908c-0.514,1.46-0.8,2.714-0.681,3.492
	c0.456,2.963,1.825,3.875,3.421,3.19c1.186-0.508,3.256-0.767,5.082-2.271c0.988,0.934,1.665,1.895,1.984,2.956
	c0.685,2.279,0.342,5.927,2.26,6.873c0,0,1.959-0.719,2.3,0.194c0.825,2.197,4.104,2.734,4.56,1.367c0,0,2.964,0,3.192-1.823
	c0,0,2.734,0.228,1.367-4.332c-1.015-3.381-5.226-9.892-9.471-13.964c2.044-3.157,3.979-6.581,4.228-9.062
	c0.456-4.561-1.824-9.119-3.876-10.942c-1.756-1.562-7.079-3.82-11.953-6.7c1.451-6.52,1.372-12.509,2.456-17.659
	c0.425-2.021,1.477-5.169,2.875-8.702c0,0,3.281-0.986,6.016-0.986c2.736,0,6.009-2.05,8.363-4.104
	c2.352-2.051,3.72-3.762,5.429-4.786c1.711-1.026,4.104-1.026,3.079-4.787c-1.026-3.763-4.297-7.516-6.912-11.514
	c-3.803-5.813-5.641-8.327-8.59-12.425c-3.039-4.219-9.133-6.87-13.621-7.551c0.43-2.799,2.807-7.02,5.185-12.966
	c2.736-6.839,2.508-10.716,2.736-16.415c0.228-5.7-2.884-14.712-4.188-17.553c-2.195-4.788-6.378-5.405-7.211-1.825
	c-0.492,2.121-0.832,6.537-1.05,10.465c-0.893-3.177-1.833-5.986-2.37-7.273c-1.139-2.736-4.104-5.016-6.611-4.332
	c-2.508,0.683-1.595,4.104-1.586,8.891c0.007,4.788-3.201,8.207-3.43,14.591c-0.227,6.383,4.56,15.501,6.156,19.833
	c1.035,2.809,0.727,6.088,0.384,8.054c-0.512,0.415-1.429,1.409-2.892,3.801c-2.509,4.104-3.191,7.067-6.154,10.942
	c-2.965,3.875-4.035,3.192-5.929,4.104c-1.893,0.912-9.129,0.639-16.196,3.831c-6.135,2.771-10.477,5.744-13.896,7.567
	c-3.418,1.825-5.243,2.964-6.383,3.648c-1.139,0.685-5.472,2.052-12.311,2.964c-6.84,0.911-25.764-0.673-31.46-1.597
	c-8.437-1.367-14.249-4.403-17.327-4.787c-9.119-1.14-15.046,0-21.2,1.823c-2.54,0.753-4.727,2.601-6.584,4.918
	c-1.232,0.148-2.726,0.589-4.131,1.694c-3.192,2.508-4.333,5.698-5.472,9.574c-1.141,3.876-1.824,7.252-3.192,8.413
	c-1.368,1.162-5.243,2.986-3.419,4.126c1.48,0.925,4.305,1.994,7.205,1.028c-4.115,9.76-11.576,23.821-20.885,30.203
	c-6.731,4.616-22.568,10.26-26.444,10.716c-3.875,0.456-6.156,5.244-8.207,9.574c-2.052,4.332-11.627,12.767-13.223,14.961
	C1001.696,245.084,1004.888,247.994,1009.219,245.942z M1229.951,195.748c4.531,1.487,10.187,3.637,10.336,5.134
	c0.248,2.508-0.824,3.251-2.486,5.243c-0.338,0.405-0.834,1.141-1.4,2.075c-7.48-2.351-18.893-5.475-20.485-7.773
	C1215.915,200.427,1224.861,200.273,1229.951,195.748z"/>
</svg>
